<?xml version="1.0" encoding="UTF-8" standalone="no"?>
<!DOCTYPE svg PUBLIC "-//W3C//DTD SVG 1.1//EN"
 "http://www.w3.org/Graphics/SVG/1.1/DTD/svg11.dtd">
<!-- Generated by graphviz version 5.0.0 (20220707.1540)
 -->
<!-- Title: UmlClassDiagram Pages: 1 -->
<svg width="1414pt" height="1155pt"
 viewBox="0.00 0.00 1413.74 1155.00" xmlns="http://www.w3.org/2000/svg" xmlns:xlink="http://www.w3.org/1999/xlink">
<g id="graph0" class="graph" transform="scale(1 1) rotate(0) translate(4 1151)">
<title>UmlClassDiagram</title>
<polygon fill="white" stroke="transparent" points="-4,4 -4,-1151 1409.74,-1151 1409.74,4 -4,4"/>
<!-- 3 -->
<g id="node1" class="node">
<title>3</title>
<polygon fill="#f2f2f2" stroke="black" points="744.91,-975.3 744.91,-1133.7 923.42,-1133.7 923.42,-975.3 744.91,-975.3"/>
<text text-anchor="middle" x="834.17" y="-1117.1" font-family="Times,serif" font-size="14.00">&lt;&lt;Library&gt;&gt;</text>
<text text-anchor="middle" x="834.17" y="-1100.3" font-family="Times,serif" font-size="14.00">Base64</text>
<text text-anchor="start" x="752.91" y="-1083.5" font-family="Times,serif" font-size="14.00">contracts</text>
<text text-anchor="middle" x="834.17" y="-1066.7" font-family="Times,serif" font-size="14.00">ibrariesBase64.sol</text>
<polyline fill="none" stroke="black" points="744.91,-1058.5 923.42,-1058.5 "/>
<text text-anchor="start" x="752.91" y="-1041.9" font-family="Times,serif" font-size="14.00">Internal:</text>
<text text-anchor="start" x="752.91" y="-1025.1" font-family="Times,serif" font-size="14.00"> &#160;&#160;TABLE: bytes</text>
<polyline fill="none" stroke="black" points="744.91,-1016.9 923.42,-1016.9 "/>
<text text-anchor="start" x="752.91" y="-1000.3" font-family="Times,serif" font-size="14.00">Public:</text>
<text text-anchor="start" x="752.91" y="-983.5" font-family="Times,serif" font-size="14.00"> &#160;&#160;&#160;encode(data: bytes): string</text>
</g>
<!-- 4 -->
<g id="node2" class="node">
<title>4</title>
<polygon fill="#f2f2f2" stroke="black" points="941.81,-987.7 941.81,-1121.3 1198.53,-1121.3 1198.53,-987.7 941.81,-987.7"/>
<text text-anchor="middle" x="1070.17" y="-1104.7" font-family="Times,serif" font-size="14.00">&lt;&lt;Library&gt;&gt;</text>
<text text-anchor="middle" x="1070.17" y="-1087.9" font-family="Times,serif" font-size="14.00">Cast</text>
<text text-anchor="start" x="949.81" y="-1071.1" font-family="Times,serif" font-size="14.00">contracts</text>
<text text-anchor="middle" x="1070.17" y="-1054.3" font-family="Times,serif" font-size="14.00">ibrariesCast.sol</text>
<polyline fill="none" stroke="black" points="941.81,-1046.1 1198.53,-1046.1 "/>
<text text-anchor="start" x="949.81" y="-1029.5" font-family="Times,serif" font-size="14.00">Public:</text>
<text text-anchor="start" x="949.81" y="-1012.7" font-family="Times,serif" font-size="14.00"> &#160;&#160;&#160;uint2str(_i: uint): (_uintAsString: string)</text>
<text text-anchor="start" x="949.81" y="-995.9" font-family="Times,serif" font-size="14.00"> &#160;&#160;&#160;str2uint(numString: string): uint</text>
</g>
<!-- 0 -->
<g id="node3" class="node">
<title>0</title>
<polygon fill="#f2f2f2" stroke="black" points="0,-0.5 0,-377.3 746.33,-377.3 746.33,-0.5 0,-0.5"/>
<text text-anchor="middle" x="373.17" y="-360.7" font-family="Times,serif" font-size="14.00">nftMarketplace</text>
<text text-anchor="middle" x="373.17" y="-343.9" font-family="Times,serif" font-size="14.00">contracts</text>
<text text-anchor="middle" x="373.17" y="-327.1" font-family="Times,serif" font-size="14.00">ftMarketplace.sol</text>
<polyline fill="none" stroke="black" points="0,-318.9 746.33,-318.9 "/>
<text text-anchor="start" x="8" y="-302.3" font-family="Times,serif" font-size="14.00">Public:</text>
<text text-anchor="start" x="8" y="-285.5" font-family="Times,serif" font-size="14.00"> &#160;&#160;balance: mapping(address=&gt;uint256)</text>
<text text-anchor="start" x="8" y="-268.7" font-family="Times,serif" font-size="14.00"> &#160;&#160;listing: mapping(address=&gt;mapping(string=&gt;Listing))</text>
<text text-anchor="start" x="8" y="-251.9" font-family="Times,serif" font-size="14.00"> &#160;&#160;sellerIds: mapping(address=&gt;string[])</text>
<text text-anchor="start" x="8" y="-235.1" font-family="Times,serif" font-size="14.00"> &#160;&#160;sellerOffers: mapping(address=&gt;SellerOffer[])</text>
<polyline fill="none" stroke="black" points="0,-226.9 746.33,-226.9 "/>
<text text-anchor="start" x="8" y="-210.3" font-family="Times,serif" font-size="14.00">External:</text>
<text text-anchor="start" x="8" y="-193.5" font-family="Times,serif" font-size="14.00"> &#160;&#160;&#160;&lt;&lt;payable&gt;&gt; deleteOffer(concertAddr: address, tokenId: uint256) &lt;&lt;isListed&gt;&gt;</text>
<text text-anchor="start" x="8" y="-176.7" font-family="Times,serif" font-size="14.00"> &#160;&#160;&#160;&lt;&lt;payable&gt;&gt; buyTicket(concertAddr: address, owner: address, tokenId: uint256, amount: uint256) &lt;&lt;nonReentrant, isListed&gt;&gt;</text>
<text text-anchor="start" x="8" y="-159.9" font-family="Times,serif" font-size="14.00"> &#160;&#160;&#160;insertOffer(concertAddr: address, params: Listing) &lt;&lt;isOwner, isNotListed&gt;&gt;</text>
<text text-anchor="start" x="8" y="-143.1" font-family="Times,serif" font-size="14.00"> &#160;&#160;&#160;updateOffer(concertAddr: address, params: Listing) &lt;&lt;isListed&gt;&gt;</text>
<text text-anchor="start" x="8" y="-126.3" font-family="Times,serif" font-size="14.00"> &#160;&#160;&#160;getListedTicket(concertAddr: address, sellerId: string): ListedTicket</text>
<text text-anchor="start" x="8" y="-109.5" font-family="Times,serif" font-size="14.00">Public:</text>
<text text-anchor="start" x="8" y="-92.7" font-family="Times,serif" font-size="14.00"> &#160;&#160;&#160;&lt;&lt;modifier&gt;&gt; isOwner(concertAddr: address, tokenId: uint256, amount: uint256)</text>
<text text-anchor="start" x="8" y="-75.9" font-family="Times,serif" font-size="14.00"> &#160;&#160;&#160;&lt;&lt;modifier&gt;&gt; isNotListed(concertAddr: address, tokenId: uint256)</text>
<text text-anchor="start" x="8" y="-59.1" font-family="Times,serif" font-size="14.00"> &#160;&#160;&#160;&lt;&lt;modifier&gt;&gt; isListed(concertAddr: address, owner: address, tokenId: uint256)</text>
<text text-anchor="start" x="8" y="-42.3" font-family="Times,serif" font-size="14.00"> &#160;&#160;&#160;withdraw(destAddr: address)</text>
<text text-anchor="start" x="8" y="-25.5" font-family="Times,serif" font-size="14.00"> &#160;&#160;&#160;getSellerIds(concert: address): string[]</text>
<text text-anchor="start" x="8" y="-8.7" font-family="Times,serif" font-size="14.00"> &#160;&#160;&#160;getOffersBySeller(seller: address): SellerOffer[]</text>
</g>
<!-- 1 -->
<g id="node4" class="node">
<title>1</title>
<polygon fill="#f2f2f2" stroke="black" points="502.23,-414.3 502.23,-925.5 1134.1,-925.5 1134.1,-414.3 502.23,-414.3"/>
<text text-anchor="middle" x="818.17" y="-908.9" font-family="Times,serif" font-size="14.00">tickeD1155</text>
<text text-anchor="middle" x="818.17" y="-892.1" font-family="Times,serif" font-size="14.00">contractstickeD1155.sol</text>
<polyline fill="none" stroke="black" points="502.23,-883.9 1134.1,-883.9 "/>
<text text-anchor="start" x="510.23" y="-867.3" font-family="Times,serif" font-size="14.00">Private:</text>
<text text-anchor="start" x="510.23" y="-850.5" font-family="Times,serif" font-size="14.00"> &#160;&#160;orgCredits: uint256</text>
<text text-anchor="start" x="510.23" y="-833.7" font-family="Times,serif" font-size="14.00"> &#160;&#160;sectorPointer: uint256</text>
<text text-anchor="start" x="510.23" y="-816.9" font-family="Times,serif" font-size="14.00"> &#160;&#160;_tokenIds: Counters.Counter</text>
<text text-anchor="start" x="510.23" y="-800.1" font-family="Times,serif" font-size="14.00">Public:</text>
<text text-anchor="start" x="510.23" y="-783.3" font-family="Times,serif" font-size="14.00"> &#160;&#160;orgAddress: address</text>
<text text-anchor="start" x="510.23" y="-766.5" font-family="Times,serif" font-size="14.00"> &#160;&#160;name: string</text>
<text text-anchor="start" x="510.23" y="-749.7" font-family="Times,serif" font-size="14.00"> &#160;&#160;description: string</text>
<text text-anchor="start" x="510.23" y="-732.9" font-family="Times,serif" font-size="14.00"> &#160;&#160;date: uint256</text>
<text text-anchor="start" x="510.23" y="-716.1" font-family="Times,serif" font-size="14.00"> &#160;&#160;image: string</text>
<text text-anchor="start" x="510.23" y="-699.3" font-family="Times,serif" font-size="14.00"> &#160;&#160;sectors: Sector[]</text>
<text text-anchor="start" x="510.23" y="-682.5" font-family="Times,serif" font-size="14.00"> &#160;&#160;soldTokenIds: mapping(string=&gt;uint256[])</text>
<text text-anchor="start" x="510.23" y="-665.7" font-family="Times,serif" font-size="14.00"> &#160;&#160;ticketAttr: mapping(uint256=&gt;Ticket)</text>
<polyline fill="none" stroke="black" points="502.23,-657.5 1134.1,-657.5 "/>
<text text-anchor="start" x="510.23" y="-640.9" font-family="Times,serif" font-size="14.00">External:</text>
<text text-anchor="start" x="510.23" y="-624.1" font-family="Times,serif" font-size="14.00"> &#160;&#160;&#160;&lt;&lt;payable&gt;&gt; buyTicket(tokenId: uint256, amount: uint256) &lt;&lt;nonReentrant&gt;&gt;</text>
<text text-anchor="start" x="510.23" y="-607.3" font-family="Times,serif" font-size="14.00"> &#160;&#160;&#160;addSectors(_sectors: string[])</text>
<text text-anchor="start" x="510.23" y="-590.5" font-family="Times,serif" font-size="14.00"> &#160;&#160;&#160;addResellFee(fee: uint256)</text>
<text text-anchor="start" x="510.23" y="-573.7" font-family="Times,serif" font-size="14.00"> &#160;&#160;&#160;setDate(newDate: uint256)</text>
<text text-anchor="start" x="510.23" y="-556.9" font-family="Times,serif" font-size="14.00">Public:</text>
<text text-anchor="start" x="510.23" y="-540.1" font-family="Times,serif" font-size="14.00"> &#160;&#160;&#160;supportsInterface(interfaceId: bytes4): bool</text>
<text text-anchor="start" x="510.23" y="-523.3" font-family="Times,serif" font-size="14.00"> &#160;&#160;&#160;constructor(_owner: address, _name: string, _desc: string, _date: uint256, _image: string, _sectors: string[])</text>
<text text-anchor="start" x="510.23" y="-506.5" font-family="Times,serif" font-size="14.00"> &#160;&#160;&#160;createAndMintTickets() &lt;&lt;nonReentrant&gt;&gt;</text>
<text text-anchor="start" x="510.23" y="-489.7" font-family="Times,serif" font-size="14.00"> &#160;&#160;&#160;uri(tokenId: uint256): string</text>
<text text-anchor="start" x="510.23" y="-472.9" font-family="Times,serif" font-size="14.00"> &#160;&#160;&#160;tokenURI(tokenId: uint256): string</text>
<text text-anchor="start" x="510.23" y="-456.1" font-family="Times,serif" font-size="14.00"> &#160;&#160;&#160;withdrawOrgCredits(destAddr: address)</text>
<text text-anchor="start" x="510.23" y="-439.3" font-family="Times,serif" font-size="14.00"> &#160;&#160;&#160;getSectors(): Sector[]</text>
<text text-anchor="start" x="510.23" y="-422.5" font-family="Times,serif" font-size="14.00"> &#160;&#160;&#160;getSoldTokenIds(sectorName: string): uint256[]</text>
</g>
<!-- 0&#45;&gt;1 -->
<g id="edge1" class="edge">
<title>0&#45;&gt;1</title>
<path fill="none" stroke="black" stroke-dasharray="5,2" d="M547.45,-377.5C556.38,-387.11 565.42,-396.84 574.5,-406.62"/>
<polygon fill="black" stroke="black" points="572.09,-409.16 581.46,-414.11 577.22,-404.4 572.09,-409.16"/>
</g>
<!-- 6 -->
<g id="node7" class="node">
<title>6</title>
<polygon fill="#f2f2f2" stroke="black" points="384.43,-979.3 384.43,-1129.7 529.9,-1129.7 529.9,-979.3 384.43,-979.3"/>
<text text-anchor="middle" x="457.17" y="-1113.1" font-family="Times,serif" font-size="14.00">&lt;&lt;Struct&gt;&gt;</text>
<text text-anchor="middle" x="457.17" y="-1096.3" font-family="Times,serif" font-size="14.00">Ticket</text>
<text text-anchor="middle" x="457.17" y="-1079.5" font-family="Times,serif" font-size="14.00">contractstypestypes.sol</text>
<polyline fill="none" stroke="black" points="384.43,-1071.3 529.9,-1071.3 "/>
<text text-anchor="start" x="392.43" y="-1054.7" font-family="Times,serif" font-size="14.00">sectorName: string</text>
<text text-anchor="start" x="392.43" y="-1037.9" font-family="Times,serif" font-size="14.00">seatNumber: uint256</text>
<text text-anchor="start" x="392.43" y="-1021.1" font-family="Times,serif" font-size="14.00">minted: bool</text>
<text text-anchor="start" x="392.43" y="-1004.3" font-family="Times,serif" font-size="14.00">price: uint256</text>
<text text-anchor="start" x="392.43" y="-987.5" font-family="Times,serif" font-size="14.00">sold: bool</text>
</g>
<!-- 0&#45;&gt;6 -->
<g id="edge5" class="edge">
<title>0&#45;&gt;6</title>
<path fill="none" stroke="black" stroke-dasharray="5,2" d="M447.1,-377.34C450.27,-389.56 453.01,-401.78 455.17,-413.8 490.28,-609.98 477.15,-845.47 466.15,-968.75"/>
<polygon fill="black" stroke="black" points="462.65,-968.6 465.23,-978.87 469.62,-969.23 462.65,-968.6"/>
</g>
<!-- 8 -->
<g id="node9" class="node">
<title>8</title>
<polygon fill="#f2f2f2" stroke="black" points="87.43,-987.7 87.43,-1121.3 232.9,-1121.3 232.9,-987.7 87.43,-987.7"/>
<text text-anchor="middle" x="160.17" y="-1104.7" font-family="Times,serif" font-size="14.00">&lt;&lt;Struct&gt;&gt;</text>
<text text-anchor="middle" x="160.17" y="-1087.9" font-family="Times,serif" font-size="14.00">Listing</text>
<text text-anchor="middle" x="160.17" y="-1071.1" font-family="Times,serif" font-size="14.00">contractstypestypes.sol</text>
<polyline fill="none" stroke="black" points="87.43,-1062.9 232.9,-1062.9 "/>
<text text-anchor="start" x="95.43" y="-1046.3" font-family="Times,serif" font-size="14.00">tokenId: uint256</text>
<text text-anchor="start" x="95.43" y="-1029.5" font-family="Times,serif" font-size="14.00">amount: uint256</text>
<text text-anchor="start" x="95.43" y="-1012.7" font-family="Times,serif" font-size="14.00">price: uint256</text>
<text text-anchor="start" x="95.43" y="-995.9" font-family="Times,serif" font-size="14.00">seller: address</text>
</g>
<!-- 0&#45;&gt;8 -->
<g id="edge2" class="edge">
<title>0&#45;&gt;8</title>
<path fill="none" stroke="black" stroke-dasharray="5,2" d="M147.73,-377.46C140.29,-389.15 133.69,-401.28 128.17,-413.8 44.97,-602.52 99.13,-853.58 135.28,-977.57"/>
<polygon fill="black" stroke="black" points="131.98,-978.77 138.17,-987.37 138.69,-976.78 131.98,-978.77"/>
</g>
<!-- 9 -->
<g id="node10" class="node">
<title>9</title>
<polygon fill="#f2f2f2" stroke="black" points="137.43,-619.9 137.43,-719.9 282.9,-719.9 282.9,-619.9 137.43,-619.9"/>
<text text-anchor="middle" x="210.17" y="-703.3" font-family="Times,serif" font-size="14.00">&lt;&lt;Struct&gt;&gt;</text>
<text text-anchor="middle" x="210.17" y="-686.5" font-family="Times,serif" font-size="14.00">ListedTicket</text>
<text text-anchor="middle" x="210.17" y="-669.7" font-family="Times,serif" font-size="14.00">contractstypestypes.sol</text>
<polyline fill="none" stroke="black" points="137.43,-661.5 282.9,-661.5 "/>
<text text-anchor="start" x="145.43" y="-644.9" font-family="Times,serif" font-size="14.00">listing: Listing</text>
<text text-anchor="start" x="145.43" y="-628.1" font-family="Times,serif" font-size="14.00">ticket: Ticket</text>
</g>
<!-- 0&#45;&gt;9 -->
<g id="edge4" class="edge">
<title>0&#45;&gt;9</title>
<path fill="none" stroke="black" stroke-dasharray="5,2" d="M303.78,-377.52C299.45,-389.77 295.21,-401.95 291.17,-413.8 268.3,-480.72 243.99,-558.23 228.04,-610.09"/>
<polygon fill="black" stroke="black" points="224.65,-609.2 225.06,-619.79 231.34,-611.26 224.65,-609.2"/>
</g>
<!-- 10 -->
<g id="node11" class="node">
<title>10</title>
<polygon fill="#f2f2f2" stroke="black" points="300.43,-619.9 300.43,-719.9 445.9,-719.9 445.9,-619.9 300.43,-619.9"/>
<text text-anchor="middle" x="373.17" y="-703.3" font-family="Times,serif" font-size="14.00">&lt;&lt;Struct&gt;&gt;</text>
<text text-anchor="middle" x="373.17" y="-686.5" font-family="Times,serif" font-size="14.00">SellerOffer</text>
<text text-anchor="middle" x="373.17" y="-669.7" font-family="Times,serif" font-size="14.00">contractstypestypes.sol</text>
<polyline fill="none" stroke="black" points="300.43,-661.5 445.9,-661.5 "/>
<text text-anchor="start" x="308.43" y="-644.9" font-family="Times,serif" font-size="14.00">concertAddr: address</text>
<text text-anchor="start" x="308.43" y="-628.1" font-family="Times,serif" font-size="14.00">sellerId: string</text>
</g>
<!-- 0&#45;&gt;10 -->
<g id="edge3" class="edge">
<title>0&#45;&gt;10</title>
<path fill="none" stroke="black" stroke-dasharray="5,2" d="M373.17,-377.5C373.17,-460.25 373.17,-551.69 373.17,-609.67"/>
<polygon fill="black" stroke="black" points="369.67,-609.74 373.17,-619.74 376.67,-609.74 369.67,-609.74"/>
</g>
<!-- 1&#45;&gt;3 -->
<g id="edge9" class="edge">
<title>1&#45;&gt;3</title>
<path fill="none" stroke="black" stroke-dasharray="5,2" d="M828.82,-925.57C829.39,-939.32 829.95,-952.58 830.47,-965.02"/>
<polygon fill="black" stroke="black" points="826.98,-965.42 830.89,-975.27 833.97,-965.13 826.98,-965.42"/>
</g>
<!-- 1&#45;&gt;4 -->
<g id="edge8" class="edge">
<title>1&#45;&gt;4</title>
<path fill="none" stroke="black" stroke-dasharray="5,2" d="M985.9,-925.57C998.48,-944.66 1010.43,-962.8 1021.17,-979.11"/>
<polygon fill="black" stroke="black" points="1018.25,-981.04 1026.67,-987.46 1024.09,-977.19 1018.25,-981.04"/>
</g>
<!-- 5 -->
<g id="node6" class="node">
<title>5</title>
<polygon fill="#f2f2f2" stroke="black" points="547.72,-962.5 547.72,-1146.5 726.61,-1146.5 726.61,-962.5 547.72,-962.5"/>
<text text-anchor="middle" x="637.17" y="-1129.9" font-family="Times,serif" font-size="14.00">&lt;&lt;Struct&gt;&gt;</text>
<text text-anchor="middle" x="637.17" y="-1113.1" font-family="Times,serif" font-size="14.00">Sector</text>
<text text-anchor="middle" x="637.17" y="-1096.3" font-family="Times,serif" font-size="14.00">contractstypestypes.sol</text>
<polyline fill="none" stroke="black" points="547.72,-1088.1 726.61,-1088.1 "/>
<text text-anchor="start" x="555.72" y="-1071.5" font-family="Times,serif" font-size="14.00">name: string</text>
<text text-anchor="start" x="555.72" y="-1054.7" font-family="Times,serif" font-size="14.00">isNumerable: bool</text>
<text text-anchor="start" x="555.72" y="-1037.9" font-family="Times,serif" font-size="14.00">seatStart: uint256</text>
<text text-anchor="start" x="555.72" y="-1021.1" font-family="Times,serif" font-size="14.00">seatStop: uint256</text>
<text text-anchor="start" x="555.72" y="-1004.3" font-family="Times,serif" font-size="14.00">mintedByOrg: bool</text>
<text text-anchor="start" x="555.72" y="-987.5" font-family="Times,serif" font-size="14.00">price: uint256</text>
<text text-anchor="start" x="555.72" y="-970.7" font-family="Times,serif" font-size="14.00">availableTokenIds: uint256[]</text>
</g>
<!-- 1&#45;&gt;5 -->
<g id="edge6" class="edge">
<title>1&#45;&gt;5</title>
<path fill="none" stroke="black" d="M697.69,-925.57C693.2,-935.06 688.82,-944.32 684.6,-953.24"/>
<polygon fill="black" stroke="black" points="681.38,-951.86 680.26,-962.4 687.7,-954.86 681.38,-951.86"/>
</g>
<!-- 1&#45;&gt;6 -->
<g id="edge7" class="edge">
<title>1&#45;&gt;6</title>
<path fill="none" stroke="black" d="M573.09,-925.63C561.58,-937.89 550.23,-950.06 539.17,-962 536.31,-965.08 533.41,-968.23 530.49,-971.41"/>
<polygon fill="black" stroke="black" points="527.8,-969.16 523.64,-978.91 532.97,-973.89 527.8,-969.16"/>
</g>
<!-- 2 -->
<g id="node5" class="node">
<title>2</title>
<polygon fill="#f2f2f2" stroke="black" points="860.59,-67.7 860.59,-310.1 1405.74,-310.1 1405.74,-67.7 860.59,-67.7"/>
<text text-anchor="middle" x="1133.17" y="-293.5" font-family="Times,serif" font-size="14.00">tickeDFactory</text>
<text text-anchor="middle" x="1133.17" y="-276.7" font-family="Times,serif" font-size="14.00">contractstickeDFactory.sol</text>
<polyline fill="none" stroke="black" points="860.59,-268.5 1405.74,-268.5 "/>
<text text-anchor="start" x="868.59" y="-251.9" font-family="Times,serif" font-size="14.00">Public:</text>
<text text-anchor="start" x="868.59" y="-235.1" font-family="Times,serif" font-size="14.00"> &#160;&#160;whitelist: mapping(address=&gt;bool)</text>
<text text-anchor="start" x="868.59" y="-218.3" font-family="Times,serif" font-size="14.00"> &#160;&#160;deployedContracts: mapping(address=&gt;DepConcert[])</text>
<text text-anchor="start" x="868.59" y="-201.5" font-family="Times,serif" font-size="14.00"> &#160;&#160;organizers: address[]</text>
<polyline fill="none" stroke="black" points="860.59,-193.3 1405.74,-193.3 "/>
<text text-anchor="start" x="868.59" y="-176.7" font-family="Times,serif" font-size="14.00">External:</text>
<text text-anchor="start" x="868.59" y="-159.9" font-family="Times,serif" font-size="14.00"> &#160;&#160;&#160;createTickets(_name: string, _desc: string, _date: uint256, _image: string, _sectors: string[])</text>
<text text-anchor="start" x="868.59" y="-143.1" font-family="Times,serif" font-size="14.00">Public:</text>
<text text-anchor="start" x="868.59" y="-126.3" font-family="Times,serif" font-size="14.00"> &#160;&#160;&#160;&lt;&lt;event&gt;&gt; tickeD1155Created(owner: address, tokenContract: address)</text>
<text text-anchor="start" x="868.59" y="-109.5" font-family="Times,serif" font-size="14.00"> &#160;&#160;&#160;setOrganizatorPermission(addr: address, toggle: bool) &lt;&lt;onlyOwner&gt;&gt;</text>
<text text-anchor="start" x="868.59" y="-92.7" font-family="Times,serif" font-size="14.00"> &#160;&#160;&#160;getDepContracts(org: address): DepConcert[]</text>
<text text-anchor="start" x="868.59" y="-75.9" font-family="Times,serif" font-size="14.00"> &#160;&#160;&#160;getOrganizers(): address[]</text>
</g>
<!-- 2&#45;&gt;1 -->
<g id="edge10" class="edge">
<title>2&#45;&gt;1</title>
<path fill="none" stroke="black" stroke-dasharray="5,2" d="M1054.08,-310.15C1034.68,-339.66 1013.14,-372.41 991.2,-405.78"/>
<polygon fill="black" stroke="black" points="988.18,-403.99 985.61,-414.27 994.03,-407.84 988.18,-403.99"/>
</g>
<!-- 7 -->
<g id="node8" class="node">
<title>7</title>
<polygon fill="#f2f2f2" stroke="black" points="1151.99,-619.9 1151.99,-719.9 1308.34,-719.9 1308.34,-619.9 1151.99,-619.9"/>
<text text-anchor="middle" x="1230.17" y="-703.3" font-family="Times,serif" font-size="14.00">&lt;&lt;Struct&gt;&gt;</text>
<text text-anchor="middle" x="1230.17" y="-686.5" font-family="Times,serif" font-size="14.00">DepConcert</text>
<text text-anchor="middle" x="1230.17" y="-669.7" font-family="Times,serif" font-size="14.00">contractstypestypes.sol</text>
<polyline fill="none" stroke="black" points="1151.99,-661.5 1308.34,-661.5 "/>
<text text-anchor="start" x="1159.99" y="-644.9" font-family="Times,serif" font-size="14.00">contractAddress: address</text>
<text text-anchor="start" x="1159.99" y="-628.1" font-family="Times,serif" font-size="14.00">name: string</text>
</g>
<!-- 2&#45;&gt;7 -->
<g id="edge11" class="edge">
<title>2&#45;&gt;7</title>
<path fill="none" stroke="black" stroke-dasharray="5,2" d="M1157.52,-310.15C1176.87,-405.7 1203.1,-535.25 1218.17,-609.67"/>
<polygon fill="black" stroke="black" points="1214.81,-610.69 1220.22,-619.8 1221.67,-609.3 1214.81,-610.69"/>
</g>
<!-- 9&#45;&gt;6 -->
<g id="edge13" class="edge">
<title>9&#45;&gt;6</title>
<path fill="none" stroke="black" stroke-dasharray="5,2" d="M216.74,-719.9C225.96,-774.33 246.87,-862.85 291.17,-926 313.29,-957.55 345.56,-984.83 375.79,-1005.98"/>
<polygon fill="black" stroke="black" points="374.02,-1009.01 384.25,-1011.78 377.98,-1003.23 374.02,-1009.01"/>
</g>
<!-- 9&#45;&gt;8 -->
<g id="edge12" class="edge">
<title>9&#45;&gt;8</title>
<path fill="none" stroke="black" stroke-dasharray="5,2" d="M203.73,-720.13C195.21,-785.32 180.1,-900.94 170.11,-977.41"/>
<polygon fill="black" stroke="black" points="166.62,-977.09 168.8,-987.46 173.56,-978 166.62,-977.09"/>
</g>
</g>
</svg>
