<?xml version="1.0" encoding="UTF-8" standalone="no"?>
<!DOCTYPE svg PUBLIC "-//W3C//DTD SVG 1.1//EN"
 "http://www.w3.org/Graphics/SVG/1.1/DTD/svg11.dtd">
<!-- Generated by graphviz version 5.0.0 (20220707.1540)
 -->
<!-- Title: dependencies Pages: 1 -->
<svg width="686pt" height="174pt"
 viewBox="0.00 0.00 686.00 173.80" xmlns="http://www.w3.org/2000/svg" xmlns:xlink="http://www.w3.org/1999/xlink">
<g id="graph0" class="graph" transform="scale(1 1) rotate(0) translate(4 169.8)">
<title>dependencies</title>
<polygon fill="white" stroke="transparent" points="-4,4 -4,-169.8 682,-169.8 682,4 -4,4"/>
<text text-anchor="middle" x="339" y="-8.2" font-family="sans-serif" font-size="14.00">dependencies</text>
<g id="clust1" class="cluster">
<title>cluster_UserModule</title>
<polygon fill="none" stroke="black" stroke-dasharray="1,5" points="8,-32.8 8,-157.8 670,-157.8 670,-32.8 8,-32.8"/>
</g>
<g id="clust2" class="cluster">
<title>cluster_UserModule_declarations</title>
<polygon fill="none" stroke="black" points="168,-40.8 168,-92.8 662,-92.8 662,-40.8 168,-40.8"/>
</g>
<g id="clust6" class="cluster">
<title>cluster_UserModule_imports</title>
<polygon fill="none" stroke="black" points="16,-40.8 16,-92.8 160,-92.8 160,-40.8 16,-40.8"/>
</g>
<!-- CreateOfferDialogComponent -->
<g id="node1" class="node">
<title>CreateOfferDialogComponent</title>
<polygon fill="#ffffb3" stroke="black" points="654.28,-84.8 467.72,-84.8 467.72,-48.8 654.28,-48.8 654.28,-84.8"/>
<text text-anchor="middle" x="561" y="-62.6" font-family="Times,serif" font-size="14.00">CreateOfferDialogComponent</text>
</g>
<!-- UserModule -->
<g id="node4" class="node">
<title>UserModule</title>
<polygon fill="#8dd3c7" stroke="black" points="359.99,-149.8 356.99,-153.8 335.99,-153.8 332.99,-149.8 274.01,-149.8 274.01,-113.8 359.99,-113.8 359.99,-149.8"/>
<text text-anchor="middle" x="317" y="-127.6" font-family="Times,serif" font-size="14.00">UserModule</text>
</g>
<!-- CreateOfferDialogComponent&#45;&gt;UserModule -->
<g id="edge1" class="edge">
<title>CreateOfferDialogComponent&#45;&gt;UserModule</title>
<path fill="none" stroke="black" d="M561,-84.91C561,-104.14 561,-131.8 561,-131.8 561,-131.8 370.06,-131.8 370.06,-131.8"/>
<polygon fill="black" stroke="black" points="370.06,-128.3 360.06,-131.8 370.06,-135.3 370.06,-128.3"/>
</g>
<!-- MyNftComponent -->
<g id="node2" class="node">
<title>MyNftComponent</title>
<polygon fill="#ffffb3" stroke="black" points="449.94,-84.8 330.06,-84.8 330.06,-48.8 449.94,-48.8 449.94,-84.8"/>
<text text-anchor="middle" x="390" y="-62.6" font-family="Times,serif" font-size="14.00">MyNftComponent</text>
</g>
<!-- MyNftComponent&#45;&gt;UserModule -->
<g id="edge2" class="edge">
<title>MyNftComponent&#45;&gt;UserModule</title>
<path fill="none" stroke="black" d="M345.14,-84.91C345.14,-84.91 345.14,-103.79 345.14,-103.79"/>
<polygon fill="black" stroke="black" points="341.64,-103.79 345.14,-113.79 348.64,-103.79 341.64,-103.79"/>
</g>
<!-- MyOffersComponent -->
<g id="node3" class="node">
<title>MyOffersComponent</title>
<polygon fill="#ffffb3" stroke="black" points="312.04,-84.8 175.96,-84.8 175.96,-48.8 312.04,-48.8 312.04,-84.8"/>
<text text-anchor="middle" x="244" y="-62.6" font-family="Times,serif" font-size="14.00">MyOffersComponent</text>
</g>
<!-- MyOffersComponent&#45;&gt;UserModule -->
<g id="edge3" class="edge">
<title>MyOffersComponent&#45;&gt;UserModule</title>
<path fill="none" stroke="black" d="M293.14,-84.91C293.14,-84.91 293.14,-103.79 293.14,-103.79"/>
<polygon fill="black" stroke="black" points="289.64,-103.79 293.14,-113.79 296.64,-103.79 289.64,-103.79"/>
</g>
<!-- AppRoutingModule -->
<g id="node5" class="node">
<title>AppRoutingModule</title>
<polygon fill="#8dd3c7" stroke="black" points="152.28,-84.8 149.28,-88.8 128.28,-88.8 125.28,-84.8 23.72,-84.8 23.72,-48.8 152.28,-48.8 152.28,-84.8"/>
<text text-anchor="middle" x="88" y="-62.6" font-family="Times,serif" font-size="14.00">AppRoutingModule</text>
</g>
<!-- AppRoutingModule&#45;&gt;UserModule -->
<g id="edge4" class="edge">
<title>AppRoutingModule&#45;&gt;UserModule</title>
<path fill="none" stroke="black" d="M88,-84.91C88,-104.14 88,-131.8 88,-131.8 88,-131.8 263.93,-131.8 263.93,-131.8"/>
<polygon fill="black" stroke="black" points="263.93,-135.3 273.93,-131.8 263.93,-128.3 263.93,-135.3"/>
</g>
</g>
</svg>
