<?xml version="1.0" encoding="UTF-8" standalone="no"?>
<!DOCTYPE svg PUBLIC "-//W3C//DTD SVG 1.1//EN"
 "http://www.w3.org/Graphics/SVG/1.1/DTD/svg11.dtd">
<!-- Generated by graphviz version 5.0.0 (20220707.1540)
 -->
<!-- Title: dependencies Pages: 1 -->
<svg width="301pt" height="247pt"
 viewBox="0.00 0.00 301.00 246.80" xmlns="http://www.w3.org/2000/svg" xmlns:xlink="http://www.w3.org/1999/xlink">
<g id="graph0" class="graph" transform="scale(1 1) rotate(0) translate(4 242.8)">
<title>dependencies</title>
<polygon fill="white" stroke="transparent" points="-4,4 -4,-242.8 297,-242.8 297,4 -4,4"/>
<text text-anchor="middle" x="146.5" y="-8.2" font-family="sans-serif" font-size="14.00">dependencies</text>
<g id="clust1" class="cluster">
<title>cluster_PipesModule</title>
<polygon fill="none" stroke="black" stroke-dasharray="1,5" points="8,-32.8 8,-230.8 285,-230.8 285,-32.8 8,-32.8"/>
</g>
<g id="clust6" class="cluster">
<title>cluster_PipesModule_exports</title>
<polygon fill="none" stroke="black" points="16,-170.8 16,-222.8 277,-222.8 277,-170.8 16,-170.8"/>
</g>
<g id="clust2" class="cluster">
<title>cluster_PipesModule_declarations</title>
<polygon fill="none" stroke="black" points="20,-40.8 20,-92.8 274,-92.8 274,-40.8 20,-40.8"/>
</g>
<!-- FilterConcertsPipe -->
<g id="node1" class="node">
<title>FilterConcertsPipe</title>
<polygon fill="#ffffb3" stroke="black" points="266.49,-84.8 145.51,-84.8 145.51,-48.8 266.49,-48.8 266.49,-84.8"/>
<text text-anchor="middle" x="206" y="-62.6" font-family="Times,serif" font-size="14.00">FilterConcertsPipe</text>
</g>
<!-- PipesModule -->
<g id="node3" class="node">
<title>PipesModule</title>
<polygon fill="#8dd3c7" stroke="black" points="122.89,-149.8 119.89,-153.8 98.89,-153.8 95.89,-149.8 33.11,-149.8 33.11,-113.8 122.89,-113.8 122.89,-149.8"/>
<text text-anchor="middle" x="78" y="-127.6" font-family="Times,serif" font-size="14.00">PipesModule</text>
</g>
<!-- FilterConcertsPipe&#45;&gt;PipesModule -->
<g id="edge1" class="edge">
<title>FilterConcertsPipe&#45;&gt;PipesModule</title>
<path fill="none" stroke="black" d="M226.16,-84.82C226.16,-102.17 226.16,-125.8 226.16,-125.8 226.16,-125.8 133.26,-125.8 133.26,-125.8"/>
<polygon fill="black" stroke="black" points="133.26,-122.3 123.26,-125.8 133.26,-129.3 133.26,-122.3"/>
</g>
<!-- WeiToEthPipe -->
<g id="node2" class="node">
<title>WeiToEthPipe</title>
<polygon fill="#ffffb3" stroke="black" points="127.7,-84.8 28.3,-84.8 28.3,-48.8 127.7,-48.8 127.7,-84.8"/>
<text text-anchor="middle" x="78" y="-62.6" font-family="Times,serif" font-size="14.00">WeiToEthPipe</text>
</g>
<!-- WeiToEthPipe&#45;&gt;PipesModule -->
<g id="edge2" class="edge">
<title>WeiToEthPipe&#45;&gt;PipesModule</title>
<path fill="none" stroke="black" d="M78,-84.91C78,-84.91 78,-103.79 78,-103.79"/>
<polygon fill="black" stroke="black" points="74.5,-103.79 78,-113.79 81.5,-103.79 74.5,-103.79"/>
</g>
<!-- FilterConcertsPipe  -->
<g id="node4" class="node">
<title>FilterConcertsPipe </title>
<polygon fill="#fb8072" stroke="black" points="269.49,-214.8 144.51,-214.8 144.51,-178.8 269.49,-178.8 269.49,-214.8"/>
<text text-anchor="middle" x="207" y="-192.6" font-family="Times,serif" font-size="14.00">FilterConcertsPipe </text>
</g>
<!-- PipesModule&#45;&gt;FilterConcertsPipe  -->
<g id="edge3" class="edge">
<title>PipesModule&#45;&gt;FilterConcertsPipe </title>
<path fill="none" stroke="black" stroke-dasharray="5,2" d="M123.11,-137.8C152.66,-137.8 185.84,-137.8 185.84,-137.8 185.84,-137.8 185.84,-168.78 185.84,-168.78"/>
<polygon fill="black" stroke="black" points="182.34,-168.78 185.84,-178.78 189.34,-168.78 182.34,-168.78"/>
</g>
<!-- WeiToEthPipe  -->
<g id="node5" class="node">
<title>WeiToEthPipe </title>
<polygon fill="#fb8072" stroke="black" points="126.2,-214.8 23.8,-214.8 23.8,-178.8 126.2,-178.8 126.2,-214.8"/>
<text text-anchor="middle" x="75" y="-192.6" font-family="Times,serif" font-size="14.00">WeiToEthPipe </text>
</g>
<!-- PipesModule&#45;&gt;WeiToEthPipe  -->
<g id="edge4" class="edge">
<title>PipesModule&#45;&gt;WeiToEthPipe </title>
<path fill="none" stroke="black" stroke-dasharray="5,2" d="M78,-149.91C78,-149.91 78,-168.79 78,-168.79"/>
<polygon fill="black" stroke="black" points="74.5,-168.79 78,-178.79 81.5,-168.79 74.5,-168.79"/>
</g>
</g>
</svg>
