<?xml version="1.0" encoding="UTF-8" standalone="no"?>
<!DOCTYPE svg PUBLIC "-//W3C//DTD SVG 1.1//EN"
 "http://www.w3.org/Graphics/SVG/1.1/DTD/svg11.dtd">
<!-- Generated by graphviz version 5.0.0 (20220707.1540)
 -->
<!-- Title: dependencies Pages: 1 -->
<svg width="672pt" height="174pt"
 viewBox="0.00 0.00 672.00 173.80" xmlns="http://www.w3.org/2000/svg" xmlns:xlink="http://www.w3.org/1999/xlink">
<g id="graph0" class="graph" transform="scale(1 1) rotate(0) translate(4 169.8)">
<title>dependencies</title>
<polygon fill="white" stroke="transparent" points="-4,4 -4,-169.8 668,-169.8 668,4 -4,4"/>
<text text-anchor="middle" x="332" y="-8.2" font-family="sans-serif" font-size="14.00">dependencies</text>
<g id="clust1" class="cluster">
<title>cluster_ConcertManagementModule</title>
<polygon fill="none" stroke="black" stroke-dasharray="1,5" points="8,-32.8 8,-157.8 656,-157.8 656,-32.8 8,-32.8"/>
</g>
<g id="clust2" class="cluster">
<title>cluster_ConcertManagementModule_declarations</title>
<polygon fill="none" stroke="black" points="16,-40.8 16,-92.8 648,-92.8 648,-40.8 16,-40.8"/>
</g>
<!-- CreateConcertComponent -->
<g id="node1" class="node">
<title>CreateConcertComponent</title>
<polygon fill="#ffffb3" stroke="black" points="640.18,-84.8 477.82,-84.8 477.82,-48.8 640.18,-48.8 640.18,-84.8"/>
<text text-anchor="middle" x="559" y="-62.6" font-family="Times,serif" font-size="14.00">CreateConcertComponent</text>
</g>
<!-- ConcertManagementModule -->
<g id="node5" class="node">
<title>ConcertManagementModule</title>
<polygon fill="#8dd3c7" stroke="black" points="397.45,-149.8 394.45,-153.8 373.45,-153.8 370.45,-149.8 220.55,-149.8 220.55,-113.8 397.45,-113.8 397.45,-149.8"/>
<text text-anchor="middle" x="309" y="-127.6" font-family="Times,serif" font-size="14.00">ConcertManagementModule</text>
</g>
<!-- CreateConcertComponent&#45;&gt;ConcertManagementModule -->
<g id="edge1" class="edge">
<title>CreateConcertComponent&#45;&gt;ConcertManagementModule</title>
<path fill="none" stroke="black" d="M559,-84.91C559,-104.14 559,-131.8 559,-131.8 559,-131.8 407.49,-131.8 407.49,-131.8"/>
<polygon fill="black" stroke="black" points="407.49,-128.3 397.49,-131.8 407.49,-135.3 407.49,-128.3"/>
</g>
<!-- MyConcertsComponent -->
<g id="node2" class="node">
<title>MyConcertsComponent</title>
<polygon fill="#ffffb3" stroke="black" points="460.05,-84.8 309.95,-84.8 309.95,-48.8 460.05,-48.8 460.05,-84.8"/>
<text text-anchor="middle" x="385" y="-62.6" font-family="Times,serif" font-size="14.00">MyConcertsComponent</text>
</g>
<!-- MyConcertsComponent&#45;&gt;ConcertManagementModule -->
<g id="edge2" class="edge">
<title>MyConcertsComponent&#45;&gt;ConcertManagementModule</title>
<path fill="none" stroke="black" d="M353.6,-84.91C353.6,-84.91 353.6,-103.79 353.6,-103.79"/>
<polygon fill="black" stroke="black" points="350.1,-103.79 353.6,-113.79 357.1,-103.79 350.1,-103.79"/>
</g>
<!-- SectorComponent -->
<g id="node3" class="node">
<title>SectorComponent</title>
<polygon fill="#ffffb3" stroke="black" points="291.6,-84.8 174.4,-84.8 174.4,-48.8 291.6,-48.8 291.6,-84.8"/>
<text text-anchor="middle" x="233" y="-62.6" font-family="Times,serif" font-size="14.00">SectorComponent</text>
</g>
<!-- SectorComponent&#45;&gt;ConcertManagementModule -->
<g id="edge3" class="edge">
<title>SectorComponent&#45;&gt;ConcertManagementModule</title>
<path fill="none" stroke="black" d="M256.04,-84.91C256.04,-84.91 256.04,-103.79 256.04,-103.79"/>
<polygon fill="black" stroke="black" points="252.54,-103.79 256.04,-113.79 259.54,-103.79 252.54,-103.79"/>
</g>
<!-- WhitelistComponent -->
<g id="node4" class="node">
<title>WhitelistComponent</title>
<polygon fill="#ffffb3" stroke="black" points="156.16,-84.8 23.84,-84.8 23.84,-48.8 156.16,-48.8 156.16,-84.8"/>
<text text-anchor="middle" x="90" y="-62.6" font-family="Times,serif" font-size="14.00">WhitelistComponent</text>
</g>
<!-- WhitelistComponent&#45;&gt;ConcertManagementModule -->
<g id="edge4" class="edge">
<title>WhitelistComponent&#45;&gt;ConcertManagementModule</title>
<path fill="none" stroke="black" d="M90,-84.91C90,-104.14 90,-131.8 90,-131.8 90,-131.8 210.24,-131.8 210.24,-131.8"/>
<polygon fill="black" stroke="black" points="210.24,-135.3 220.24,-131.8 210.24,-128.3 210.24,-135.3"/>
</g>
</g>
</svg>
