<svg version="1.1" xmlns="http://www.w3.org/2000/svg" viewBox="0 0 1239.5554480174237 701.1448499891491" width="1239.5554480174237" height="701.1448499891491">
  <!-- svg-source:excalidraw -->
  
  <defs>
    <style class="style-fonts">
      @font-face {
        font-family: "Virgil";
        src: url("https://excalidraw.com/Virgil.woff2");
      }
      @font-face {
        font-family: "Cascadia";
        src: url("https://excalidraw.com/Cascadia.woff2");
      }
    </style>
  </defs>
  <rect x="0" y="0" width="1239.5554480174237" height="701.1448499891491" fill="#ffffff"></rect><g stroke-linecap="round"><g transform="translate(594.1207992311513 11.81277683803009) rotate(0 0 339.6660365755595)"><path d="M0 0 C0 113.22, 0 566.11, 0 679.33" stroke="#000000" stroke-width="1.5" fill="none" stroke-dasharray="8 9"></path></g></g><mask></mask><g transform="translate(631.6192956349206 10) rotate(0 46.875 12)"><text x="0" y="0" font-family="Cascadia, Segoe UI Emoji" font-size="20px" fill="#000000" text-anchor="start" style="white-space: pre;" direction="ltr" dominant-baseline="text-before-edge">ON-CHAIN</text></g><g transform="translate(454.2763652498762 10.94287109375) rotate(0 52.734375 12)"><text x="0" y="0" font-family="Cascadia, Segoe UI Emoji" font-size="20px" fill="#000000" text-anchor="start" style="white-space: pre;" direction="ltr" dominant-baseline="text-before-edge">OFF-CHAIN</text></g><g stroke-linecap="round" transform="translate(10 71.44782782899395) rotate(0 260.04762959351234 292.32374219018124)"><path d="M326.25 73.25 M326.25 73.25 C354.36 105.28, 382.47 137.3, 454.85 219.75 M454.85 219.75 C520.1 293, 520.1 293, 454.85 366.25 M454.85 366.25 C403.84 423.82, 352.84 481.39, 326.25 511.4 M326.25 511.4 C261 584.65, 261 584.65, 195.75 511.4 M195.75 511.4 C147.85 458.12, 99.94 404.84, 65.25 366.25 M65.25 366.25 C0 293, 0 293, 65.25 219.75 M65.25 219.75 C110.06 169.45, 154.87 119.15, 195.75 73.25 M195.75 73.25 C261 0, 261 0, 326.25 73.25" stroke="#000000" stroke-width="1.5" fill="none" stroke-dasharray="1.5 7"></path></g><g transform="translate(119.02561693342926 317.3731079101565) rotate(0 33.63932291666663 45.92888888888885)"><text x="33.63932291666663" y="0" font-family="Cascadia, Segoe UI Emoji" font-size="38.27408705220791px" fill="#000000" text-anchor="middle" style="white-space: pre;" direction="ltr" dominant-baseline="text-before-edge">WEB</text><text x="33.63932291666663" y="45.92888888888885" font-family="Cascadia, Segoe UI Emoji" font-size="38.27408705220791px" fill="#000000" text-anchor="middle" style="white-space: pre;" direction="ltr" dominant-baseline="text-before-edge">APP</text></g><g stroke-linecap="round" transform="translate(189.49223594060027 179.69839138454873) rotate(0 86 36.5)"><path d="M18.25 0 M18.25 0 C58.76 0, 99.27 0, 153.75 0 M153.75 0 C165.92 0, 172 6.08, 172 18.25 M172 18.25 C172 28.25, 172 38.25, 172 54.75 M172 54.75 C172 66.92, 165.92 73, 153.75 73 M153.75 73 C99.64 73, 45.52 73, 18.25 73 M18.25 73 C6.08 73, 0 66.92, 0 54.75 M0 54.75 C0 41.36, 0 27.97, 0 18.25 M0 18.25 C0 6.08, 6.08 0, 18.25 0" stroke="#000000" stroke-width="1.5" fill="none" stroke-dasharray="1.5 7"></path></g><g transform="translate(205.17973594060027 192.19839138454873) rotate(0 70.3125 24)"><text x="70.3125" y="0" font-family="Cascadia, Segoe UI Emoji" font-size="20px" fill="#000000" text-anchor="middle" style="white-space: pre;" direction="ltr" dominant-baseline="text-before-edge">FILL THE </text><text x="70.3125" y="24" font-family="Cascadia, Segoe UI Emoji" font-size="20px" fill="#000000" text-anchor="middle" style="white-space: pre;" direction="ltr" dominant-baseline="text-before-edge">CONCERT FORM</text></g><g stroke-linecap="round" transform="translate(700.5716426788824 182.4920746334016) rotate(0 126 39)"><path d="M19.5 0 M19.5 0 C100.91 0, 182.32 0, 232.5 0 M232.5 0 C245.5 0, 252 6.5, 252 19.5 M252 19.5 C252 28.06, 252 36.62, 252 58.5 M252 58.5 C252 71.5, 245.5 78, 232.5 78 M232.5 78 C178.54 78, 124.59 78, 19.5 78 M19.5 78 C6.5 78, 0 71.5, 0 58.5 M0 58.5 C0 43.36, 0 28.22, 0 19.5 M0 19.5 C0 6.5, 6.5 0, 19.5 0" stroke="#000000" stroke-width="1.5" fill="none" stroke-dasharray="1.5 7"></path></g><g transform="translate(738.6810176788824 197.4920746334016) rotate(0 87.890625 24)"><text x="87.890625" y="0" font-family="Cascadia, Segoe UI Emoji" font-size="20px" fill="#000000" text-anchor="middle" style="white-space: pre;" direction="ltr" dominant-baseline="text-before-edge">tickeDFactory</text><text x="87.890625" y="24" font-family="Cascadia, Segoe UI Emoji" font-size="20px" fill="#000000" text-anchor="middle" style="white-space: pre;" direction="ltr" dominant-baseline="text-before-edge">(smartcontract)</text></g><g stroke-linecap="round" transform="translate(977.5554480174237 323.9683426145525) rotate(0 126 39)"><path d="M19.5 0 M19.5 0 C80.4 0, 141.3 0, 232.5 0 M232.5 0 C245.5 0, 252 6.5, 252 19.5 M252 19.5 C252 27.92, 252 36.33, 252 58.5 M252 58.5 C252 71.5, 245.5 78, 232.5 78 M232.5 78 C149.31 78, 66.13 78, 19.5 78 M19.5 78 C6.5 78, 0 71.5, 0 58.5 M0 58.5 C0 44.33, 0 30.16, 0 19.5 M0 19.5 C0 6.5, 6.5 0, 19.5 0" stroke="#000000" stroke-width="1.5" fill="none" stroke-dasharray="1.5 7"></path></g><g transform="translate(1015.6648230174237 338.9683426145525) rotate(0 87.890625 24)"><text x="87.890625" y="0" font-family="Cascadia, Segoe UI Emoji" font-size="20px" fill="#000000" text-anchor="middle" style="white-space: pre;" direction="ltr" dominant-baseline="text-before-edge">tickeD1155</text><text x="87.890625" y="24" font-family="Cascadia, Segoe UI Emoji" font-size="20px" fill="#000000" text-anchor="middle" style="white-space: pre;" direction="ltr" dominant-baseline="text-before-edge">(smartcontract)</text></g><g stroke-linecap="round" transform="translate(664.4444667271215 530.6666264609681) rotate(0 126 39)"><path d="M19.5 0 M19.5 0 C68.49 0, 117.49 0, 232.5 0 M232.5 0 C245.5 0, 252 6.5, 252 19.5 M252 19.5 C252 30.63, 252 41.76, 252 58.5 M252 58.5 C252 71.5, 245.5 78, 232.5 78 M232.5 78 C175.43 78, 118.37 78, 19.5 78 M19.5 78 C6.5 78, 0 71.5, 0 58.5 M0 58.5 C0 48.43, 0 38.36, 0 19.5 M0 19.5 C0 6.5, 6.5 0, 19.5 0" stroke="#000000" stroke-width="1.5" fill="none" stroke-dasharray="1.5 7"></path></g><g transform="translate(702.5538417271215 545.6666264609681) rotate(0 87.890625 24)"><text x="87.890625" y="0" font-family="Cascadia, Segoe UI Emoji" font-size="20px" fill="#000000" text-anchor="middle" style="white-space: pre;" direction="ltr" dominant-baseline="text-before-edge">nftMartketplace</text><text x="87.890625" y="24" font-family="Cascadia, Segoe UI Emoji" font-size="20px" fill="#000000" text-anchor="middle" style="white-space: pre;" direction="ltr" dominant-baseline="text-before-edge">(smartcontract)</text></g><g stroke-linecap="round"><g transform="translate(305.09865942720626 176.2004131352556) rotate(0 242.80921366010392 -41.17169716291487)"><path d="M0 0 C47.01 -13.72, 201.14 -82.21, 282.08 -82.34 C363.01 -82.48, 451.69 -14.41, 485.62 -0.82 M0 0 C47.01 -13.72, 201.14 -82.21, 282.08 -82.34 C363.01 -82.48, 451.69 -14.41, 485.62 -0.82" stroke="#d9480f" stroke-width="1" fill="none"></path></g><g transform="translate(305.09865942720626 176.2004131352556) rotate(0 242.80921366010392 -41.17169716291487)"><path d="M455.94 -5.22 C466.86 -3.6, 477.77 -1.98, 485.62 -0.82 M455.94 -5.22 C465.49 -3.81, 475.03 -2.39, 485.62 -0.82" stroke="#d9480f" stroke-width="1" fill="none"></path></g><g transform="translate(305.09865942720626 176.2004131352556) rotate(0 242.80921366010392 -41.17169716291487)"><path d="M465.72 -23.27 C473.04 -15.01, 480.36 -6.75, 485.62 -0.82 M465.72 -23.27 C472.12 -16.05, 478.52 -8.83, 485.62 -0.82" stroke="#d9480f" stroke-width="1" fill="none"></path></g></g><mask></mask><g stroke-linecap="round" transform="translate(660.4243716285345 375.186534094432) rotate(0 126 39)"><path d="M19.5 0 M19.5 0 C103.55 0, 187.59 0, 232.5 0 M232.5 0 C245.5 0, 252 6.5, 252 19.5 M252 19.5 C252 33.33, 252 47.15, 252 58.5 M252 58.5 C252 71.5, 245.5 78, 232.5 78 M232.5 78 C174.52 78, 116.55 78, 19.5 78 M19.5 78 C6.5 78, 0 71.5, 0 58.5 M0 58.5 C0 47.17, 0 35.84, 0 19.5 M0 19.5 C0 6.5, 6.5 0, 19.5 0" stroke="#000000" stroke-width="1.5" fill="none" stroke-dasharray="1.5 7"></path></g><g transform="translate(698.5337466285345 390.186534094432) rotate(0 87.890625 24)"><text x="87.890625" y="0" font-family="Cascadia, Segoe UI Emoji" font-size="20px" fill="#000000" text-anchor="middle" style="white-space: pre;" direction="ltr" dominant-baseline="text-before-edge">tickeD1155</text><text x="87.890625" y="24" font-family="Cascadia, Segoe UI Emoji" font-size="20px" fill="#000000" text-anchor="middle" style="white-space: pre;" direction="ltr" dominant-baseline="text-before-edge">(smartcontract)</text></g><g stroke-linecap="round"><g transform="translate(809.6038039681695 270.18655153304815) rotate(0 -35.32356752985652 46.87096628515678)"><path d="M0 0 C-11.77 15.62, -58.87 78.12, -70.65 93.74 M0 0 C-11.77 15.62, -58.87 78.12, -70.65 93.74" stroke="#000000" stroke-width="1" fill="none"></path></g><g transform="translate(809.6038039681695 270.18655153304815) rotate(0 -35.32356752985652 46.87096628515678)"><path d="M-61.87 65.05 C-65.31 76.3, -68.75 87.54, -70.65 93.74 M-61.87 65.05 C-64.78 74.57, -67.69 84.08, -70.65 93.74" stroke="#000000" stroke-width="1" fill="none"></path></g><g transform="translate(809.6038039681695 270.18655153304815) rotate(0 -35.32356752985652 46.87096628515678)"><path d="M-45.49 77.4 C-55.35 83.81, -65.21 90.21, -70.65 93.74 M-45.49 77.4 C-53.83 82.82, -62.18 88.24, -70.65 93.74" stroke="#000000" stroke-width="1" fill="none"></path></g></g><mask></mask><g stroke-linecap="round"><g transform="translate(917.1014535680747 265.3293955969433) rotate(0 73.30654333938617 24.000026157924196)"><path d="M0 0 C24.44 8, 122.18 40, 146.61 48 M0 0 C24.44 8, 122.18 40, 146.61 48" stroke="#000000" stroke-width="1" fill="none"></path></g><g transform="translate(917.1014535680747 265.3293955969433) rotate(0 73.30654333938617 24.000026157924196)"><path d="M116.63 48.98 C126.36 48.66, 136.09 48.34, 146.61 48 M116.63 48.98 C128.45 48.59, 140.27 48.21, 146.61 48" stroke="#000000" stroke-width="1" fill="none"></path></g><g transform="translate(917.1014535680747 265.3293955969433) rotate(0 73.30654333938617 24.000026157924196)"><path d="M123.01 29.48 C130.67 35.49, 138.33 41.5, 146.61 48 M123.01 29.48 C132.32 36.78, 141.62 44.08, 146.61 48" stroke="#000000" stroke-width="1" fill="none"></path></g></g><mask></mask><g stroke-linecap="round"><g transform="translate(278.11734846685886 172.36716832967184) rotate(0 275.4384790259825 -48.32554102374816)"><path d="M0 0 C51.59 -16.11, 217.7 -96.03, 309.51 -96.65 C401.33 -97.26, 510.65 -19.19, 550.88 -3.7 M0 0 C51.59 -16.11, 217.7 -96.03, 309.51 -96.65 C401.33 -97.26, 510.65 -19.19, 550.88 -3.7" stroke="#d9480f" stroke-width="1" fill="none"></path></g><g transform="translate(278.11734846685886 172.36716832967184) rotate(0 275.4384790259825 -48.32554102374816)"><path d="M521.12 -7.47 C528.07 -6.59, 535.02 -5.71, 550.88 -3.7 M521.12 -7.47 C528.75 -6.5, 536.39 -5.53, 550.88 -3.7" stroke="#d9480f" stroke-width="1" fill="none"></path></g><g transform="translate(278.11734846685886 172.36716832967184) rotate(0 275.4384790259825 -48.32554102374816)"><path d="M530.5 -25.72 C535.26 -20.57, 540.02 -15.43, 550.88 -3.7 M530.5 -25.72 C535.73 -20.07, 540.96 -14.41, 550.88 -3.7" stroke="#d9480f" stroke-width="1" fill="none"></path></g></g><mask></mask><g stroke-linecap="round" transform="translate(295.1072494264632 287.90075005425354) rotate(0 84.5 29)"><path d="M14.5 0 M14.5 0 C54.86 0, 95.22 0, 154.5 0 M154.5 0 C164.17 0, 169 4.83, 169 14.5 M169 14.5 C169 20.77, 169 27.04, 169 43.5 M169 43.5 C169 53.17, 164.17 58, 154.5 58 M154.5 58 C123.98 58, 93.45 58, 14.5 58 M14.5 58 C4.83 58, 0 53.17, 0 43.5 M0 43.5 C0 37.18, 0 30.87, 0 14.5 M0 14.5 C0 4.83, 4.83 0, 14.5 0" stroke="#000000" stroke-width="1.5" fill="none" stroke-dasharray="1.5 7"></path></g><g transform="translate(338.5916244264632 292.90075005425354) rotate(0 41.015625 24)"><text x="41.015625" y="0" font-family="Cascadia, Segoe UI Emoji" font-size="20px" fill="#000000" text-anchor="middle" style="white-space: pre;" direction="ltr" dominant-baseline="text-before-edge">MANAGE </text><text x="41.015625" y="24" font-family="Cascadia, Segoe UI Emoji" font-size="20px" fill="#000000" text-anchor="middle" style="white-space: pre;" direction="ltr" dominant-baseline="text-before-edge">CONCERT</text></g><g stroke-linecap="round" transform="translate(939.1865205310651 59.9484824528769) rotate(0 126 41)"><path d="M20.5 0 M20.5 0 C99.47 0, 178.44 0, 231.5 0 M231.5 0 C245.17 0, 252 6.83, 252 20.5 M252 20.5 C252 33.62, 252 46.73, 252 61.5 M252 61.5 C252 75.17, 245.17 82, 231.5 82 M231.5 82 C150.98 82, 70.46 82, 20.5 82 M20.5 82 C6.83 82, 0 75.17, 0 61.5 M0 61.5 C0 50.26, 0 39.01, 0 20.5 M0 20.5 C0 6.83, 6.83 0, 20.5 0" stroke="#000000" stroke-width="1.5" fill="none" stroke-dasharray="1.5 7"></path></g><g transform="translate(1000.7333955310651 64.9484824528769) rotate(0 64.453125 36)"><text x="64.453125" y="0" font-family="Cascadia, Segoe UI Emoji" font-size="20px" fill="#000000" text-anchor="middle" style="white-space: pre;" direction="ltr" dominant-baseline="text-before-edge">Base64,</text><text x="64.453125" y="24" font-family="Cascadia, Segoe UI Emoji" font-size="20px" fill="#000000" text-anchor="middle" style="white-space: pre;" direction="ltr" dominant-baseline="text-before-edge">Cast</text><text x="64.453125" y="48" font-family="Cascadia, Segoe UI Emoji" font-size="20px" fill="#000000" text-anchor="middle" style="white-space: pre;" direction="ltr" dominant-baseline="text-before-edge">(libraries)</text></g><g stroke-linecap="round"><g transform="translate(387.80003373452234 351.90075005425354) rotate(0 140.3123171752427 20.417820232485354)"><path d="M0 0 C28.67 6.27, 125.23 31.13, 172.01 37.62 C218.78 44.11, 262.52 38.73, 280.62 38.95 M0 0 C28.67 6.27, 125.23 31.13, 172.01 37.62 C218.78 44.11, 262.52 38.73, 280.62 38.95" stroke="#d9480f" stroke-width="1" fill="none"></path></g><g transform="translate(387.80003373452234 351.90075005425354) rotate(0 140.3123171752427 20.417820232485354)"><path d="M252.83 50.25 C263.73 45.82, 274.63 41.39, 280.62 38.95 M252.83 50.25 C259.09 47.71, 265.35 45.16, 280.62 38.95" stroke="#d9480f" stroke-width="1" fill="none"></path></g><g transform="translate(387.80003373452234 351.90075005425354) rotate(0 140.3123171752427 20.417820232485354)"><path d="M252.07 29.75 C263.27 33.36, 274.46 36.97, 280.62 38.95 M252.07 29.75 C258.5 31.82, 264.93 33.89, 280.62 38.95" stroke="#d9480f" stroke-width="1" fill="none"></path></g></g><mask></mask><g stroke-linecap="round" transform="translate(169.90080624534926 478.615201435392) rotate(0 102 26.5)"><path d="M13.25 0 M13.25 0 C69.23 0, 125.22 0, 190.75 0 M190.75 0 C199.58 0, 204 4.42, 204 13.25 M204 13.25 C204 21.48, 204 29.71, 204 39.75 M204 39.75 C204 48.58, 199.58 53, 190.75 53 M190.75 53 C147.76 53, 104.78 53, 13.25 53 M13.25 53 C4.42 53, 0 48.58, 0 39.75 M0 39.75 C0 30.58, 0 21.41, 0 13.25 M0 13.25 C0 4.42, 4.42 0, 13.25 0" stroke="#000000" stroke-width="1.5" fill="none" stroke-dasharray="1.5 7"></path></g><g transform="translate(184.01018124534926 493.115201435392) rotate(0 87.890625 12)"><text x="87.890625" y="0" font-family="Cascadia, Segoe UI Emoji" font-size="20px" fill="#000000" text-anchor="middle" style="white-space: pre;" direction="ltr" dominant-baseline="text-before-edge">CREATE AN OFFER</text></g><g stroke-linecap="round"><g transform="translate(794.4246855236237 527.3294958689856) rotate(0 0 -36.00003923688615)"><path d="M0 0 C0 -12, 0 -60, 0 -72" stroke="#000000" stroke-width="1.5" fill="none" stroke-dasharray="8 9"></path></g><g transform="translate(794.4246855236237 527.3294958689856) rotate(0 0 -36.00003923688615)"><path d="M10.26 -43.81 C6.34 -54.59, 2.41 -65.38, 0 -72" stroke="#000000" stroke-width="1.5" fill="none"></path></g><g transform="translate(794.4246855236237 527.3294958689856) rotate(0 0 -36.00003923688615)"><path d="M-10.26 -43.81 C-6.34 -54.59, -2.41 -65.38, 0 -72" stroke="#000000" stroke-width="1.5" fill="none"></path></g></g><mask></mask><g stroke-linecap="round"><g transform="translate(914.138866606213 525.9008154490635) rotate(0 71.42857142857144 -59.42862374441961)"><path d="M0 0 C23.81 -19.81, 119.05 -99.05, 142.86 -118.86" stroke="#000000" stroke-width="1.5" fill="none" stroke-dasharray="8 9"></path></g><g transform="translate(914.138866606213 525.9008154490635) rotate(0 71.42857142857144 -59.42862374441961)"><path d="M127.75 -92.94 C131.99 -100.21, 136.23 -107.49, 142.86 -118.86" stroke="#000000" stroke-width="1.5" fill="none"></path></g><g transform="translate(914.138866606213 525.9008154490635) rotate(0 71.42857142857144 -59.42862374441961)"><path d="M114.62 -108.71 C122.55 -111.56, 130.47 -114.41, 142.86 -118.86" stroke="#000000" stroke-width="1.5" fill="none"></path></g></g><mask></mask><g transform="translate(1094.8056727818075 295.6627245706226) rotate(0 64.453125 12)"><text x="0" y="0" font-family="Cascadia, Segoe UI Emoji" font-size="20px" fill="#000000" text-anchor="start" style="white-space: pre;" direction="ltr" dominant-baseline="text-before-edge">CONCERT No1</text></g><g stroke-linecap="round"><g transform="translate(298.5457798414826 542.9171093190861) rotate(0 181.27274257786348 35.222903033095406)"><path d="M0 0 C27.34 11.08, 103.65 56, 164.07 66.47 C224.49 76.95, 329.47 63.46, 362.55 62.85 M0 0 C27.34 11.08, 103.65 56, 164.07 66.47 C224.49 76.95, 329.47 63.46, 362.55 62.85" stroke="#d9480f" stroke-width="1" fill="none"></path></g><g transform="translate(298.5457798414826 542.9171093190861) rotate(0 181.27274257786348 35.222903033095406)"><path d="M335.09 74.94 C343.01 71.46, 350.93 67.97, 362.55 62.85 M335.09 74.94 C344.93 70.61, 354.77 66.28, 362.55 62.85" stroke="#d9480f" stroke-width="1" fill="none"></path></g><g transform="translate(298.5457798414826 542.9171093190861) rotate(0 181.27274257786348 35.222903033095406)"><path d="M333.74 54.47 C342.05 56.89, 350.36 59.31, 362.55 62.85 M333.74 54.47 C344.07 57.47, 354.39 60.48, 362.55 62.85" stroke="#d9480f" stroke-width="1" fill="none"></path></g></g><mask></mask><g transform="translate(775.7650751991882 344.14484998914907) rotate(0 64.453125 12)"><text x="0" y="0" font-family="Cascadia, Segoe UI Emoji" font-size="20px" fill="#000000" text-anchor="start" style="white-space: pre;" direction="ltr" dominant-baseline="text-before-edge">CONCERT No2</text></g><g transform="translate(317.4317418658545 84.1448499891491) rotate(0 64.453125 12)"><text x="0" y="0" font-family="Cascadia, Segoe UI Emoji" font-size="20px" fill="#000000" text-anchor="start" style="white-space: pre;" direction="ltr" dominant-baseline="text-before-edge">CONCERT No1</text></g><g transform="translate(370.7650751991878 155.81151665581578) rotate(0 64.453125 12)"><text x="0" y="0" font-family="Cascadia, Segoe UI Emoji" font-size="20px" fill="#000000" text-anchor="start" style="white-space: pre;" direction="ltr" dominant-baseline="text-before-edge">CONCERT No2</text></g><g stroke-linecap="round"><g transform="translate(465.10724942646334 295.0687989299498) rotate(0 252.48507080008784 17.278259828994123)"><path d="M0 0 C34.39 -0.36, 122.19 -8.67, 206.35 -2.14 C290.51 4.39, 455.2 32.3, 504.97 39.19 M0 0 C34.39 -0.36, 122.19 -8.67, 206.35 -2.14 C290.51 4.39, 455.2 32.3, 504.97 39.19" stroke="#d9480f" stroke-width="1" fill="none"></path></g><g transform="translate(465.10724942646334 295.0687989299498) rotate(0 252.48507080008784 17.278259828994123)"><path d="M475.56 45.1 C482.87 43.63, 490.17 42.16, 504.97 39.19 M475.56 45.1 C485.79 43.04, 496.02 40.99, 504.97 39.19" stroke="#d9480f" stroke-width="1" fill="none"></path></g><g transform="translate(465.10724942646334 295.0687989299498) rotate(0 252.48507080008784 17.278259828994123)"><path d="M478.64 24.81 C485.18 28.38, 491.73 31.96, 504.97 39.19 M478.64 24.81 C487.8 29.81, 496.96 34.81, 504.97 39.19" stroke="#d9480f" stroke-width="1" fill="none"></path></g></g><mask></mask><g stroke-linecap="round" transform="translate(263.8848668658543 387.3115166558158) rotate(0 76 25)"><path d="M12.5 0 M12.5 0 C40.76 0, 69.02 0, 139.5 0 M139.5 0 C147.83 0, 152 4.17, 152 12.5 M152 12.5 C152 21.76, 152 31.02, 152 37.5 M152 37.5 C152 45.83, 147.83 50, 139.5 50 M139.5 50 C106.7 50, 73.91 50, 12.5 50 M12.5 50 C4.17 50, 0 45.83, 0 37.5 M0 37.5 C0 28.26, 0 19.02, 0 12.5 M0 12.5 C0 4.17, 4.17 0, 12.5 0" stroke="#000000" stroke-width="1.5" fill="none" stroke-dasharray="1.5 7"></path></g><g transform="translate(281.2911168658543 400.3115166558158) rotate(0 58.59375 12)"><text x="58.59375" y="0" font-family="Cascadia, Segoe UI Emoji" font-size="20px" fill="#000000" text-anchor="middle" style="white-space: pre;" direction="ltr" dominant-baseline="text-before-edge">BUY TICKET</text></g><g stroke-linecap="round"><g transform="translate(364.8344307865519 447.7569952306578) rotate(0 146.66408376204262 55.30955868675596)"><path d="M0 0 C25.78 11.55, 105.82 50.85, 154.71 69.29 C203.6 87.72, 270.22 103.73, 293.33 110.62 M0 0 C25.78 11.55, 105.82 50.85, 154.71 69.29 C203.6 87.72, 270.22 103.73, 293.33 110.62" stroke="#d9480f" stroke-width="1" fill="none"></path></g><g transform="translate(364.8344307865519 447.7569952306578) rotate(0 146.66408376204262 55.30955868675596)"><path d="M263.43 113.05 C273.95 112.19, 284.48 111.34, 293.33 110.62 M263.43 113.05 C273.25 112.25, 283.07 111.45, 293.33 110.62" stroke="#d9480f" stroke-width="1" fill="none"></path></g><g transform="translate(364.8344307865519 447.7569952306578) rotate(0 146.66408376204262 55.30955868675596)"><path d="M268.86 93.26 C277.47 99.37, 286.08 105.48, 293.33 110.62 M268.86 93.26 C276.9 98.96, 284.94 104.67, 293.33 110.62" stroke="#d9480f" stroke-width="1" fill="none"></path></g></g><mask></mask><g stroke-linecap="round"><g transform="translate(421.44046875440563 427.5435731447949) rotate(0 116.27773144478249 8.76077640186125)"><path d="M0 0 C20.93 2.79, 86.84 14.29, 125.6 16.74 C164.36 19.2, 214.73 15.08, 232.56 14.74 M0 0 C20.93 2.79, 86.84 14.29, 125.6 16.74 C164.36 19.2, 214.73 15.08, 232.56 14.74" stroke="#d9480f" stroke-width="1" fill="none"></path></g><g transform="translate(421.44046875440563 427.5435731447949) rotate(0 116.27773144478249 8.76077640186125)"><path d="M204.84 26.24 C212.02 23.26, 219.2 20.28, 232.56 14.74 M204.84 26.24 C211.42 23.51, 217.99 20.78, 232.56 14.74" stroke="#d9480f" stroke-width="1" fill="none"></path></g><g transform="translate(421.44046875440563 427.5435731447949) rotate(0 116.27773144478249 8.76077640186125)"><path d="M203.94 5.74 C211.35 8.07, 218.76 10.4, 232.56 14.74 M203.94 5.74 C210.73 7.87, 217.52 10.01, 232.56 14.74" stroke="#d9480f" stroke-width="1" fill="none"></path></g></g><mask></mask></svg>