<?xml version="1.0" encoding="UTF-8" standalone="no"?>
<!DOCTYPE svg PUBLIC "-//W3C//DTD SVG 1.1//EN"
 "http://www.w3.org/Graphics/SVG/1.1/DTD/svg11.dtd">
<!-- Generated by graphviz version 5.0.0 (20220707.1540)
 -->
<!-- Title: dependencies Pages: 1 -->
<svg width="1419pt" height="247pt"
 viewBox="0.00 0.00 1419.00 246.80" xmlns="http://www.w3.org/2000/svg" xmlns:xlink="http://www.w3.org/1999/xlink">
<g id="graph0" class="graph" transform="scale(1 1) rotate(0) translate(4 242.8)">
<title>dependencies</title>
<polygon fill="white" stroke="transparent" points="-4,4 -4,-242.8 1415,-242.8 1415,4 -4,4"/>
<text text-anchor="middle" x="705.5" y="-8.2" font-family="sans-serif" font-size="14.00">dependencies</text>
<g id="clust1" class="cluster">
<title>cluster_AppModule</title>
<polygon fill="none" stroke="black" stroke-dasharray="1,5" points="8,-32.8 8,-230.8 1403,-230.8 1403,-32.8 8,-32.8"/>
</g>
<g id="clust9" class="cluster">
<title>cluster_AppModule_bootstrap</title>
<polygon fill="none" stroke="black" points="660,-170.8 660,-222.8 784,-222.8 784,-170.8 660,-170.8"/>
</g>
<g id="clust7" class="cluster">
<title>cluster_AppModule_imports</title>
<polygon fill="none" stroke="black" points="804,-40.8 804,-92.8 1395,-92.8 1395,-40.8 804,-40.8"/>
</g>
<g id="clust10" class="cluster">
<title>cluster_AppModule_providers</title>
<polygon fill="none" stroke="black" points="648,-40.8 648,-92.8 796,-92.8 796,-40.8 648,-40.8"/>
</g>
<g id="clust2" class="cluster">
<title>cluster_AppModule_declarations</title>
<polygon fill="none" stroke="black" points="16,-40.8 16,-92.8 640,-92.8 640,-40.8 16,-40.8"/>
</g>
<!-- AppComponent -->
<g id="node1" class="node">
<title>AppComponent</title>
<polygon fill="#ffffb3" stroke="black" points="631.94,-84.8 526.06,-84.8 526.06,-48.8 631.94,-48.8 631.94,-84.8"/>
<text text-anchor="middle" x="579" y="-62.6" font-family="Times,serif" font-size="14.00">AppComponent</text>
</g>
<!-- AppModule -->
<g id="node5" class="node">
<title>AppModule</title>
<polygon fill="#8dd3c7" stroke="black" points="763.66,-149.8 760.66,-153.8 739.66,-153.8 736.66,-149.8 680.34,-149.8 680.34,-113.8 763.66,-113.8 763.66,-149.8"/>
<text text-anchor="middle" x="722" y="-127.6" font-family="Times,serif" font-size="14.00">AppModule</text>
</g>
<!-- AppComponent&#45;&gt;AppModule -->
<g id="edge1" class="edge">
<title>AppComponent&#45;&gt;AppModule</title>
<path fill="none" stroke="black" d="M579,-84.81C579,-100.85 579,-121.8 579,-121.8 579,-121.8 670.25,-121.8 670.25,-121.8"/>
<polygon fill="black" stroke="black" points="670.25,-125.3 680.25,-121.8 670.25,-118.3 670.25,-125.3"/>
</g>
<!-- FooterComponent -->
<g id="node2" class="node">
<title>FooterComponent</title>
<polygon fill="#ffffb3" stroke="black" points="507.88,-84.8 390.12,-84.8 390.12,-48.8 507.88,-48.8 507.88,-84.8"/>
<text text-anchor="middle" x="449" y="-62.6" font-family="Times,serif" font-size="14.00">FooterComponent</text>
</g>
<!-- FooterComponent&#45;&gt;AppModule -->
<g id="edge2" class="edge">
<title>FooterComponent&#45;&gt;AppModule</title>
<path fill="none" stroke="black" d="M449,-85.07C449,-103.36 449,-128.8 449,-128.8 449,-128.8 670.24,-128.8 670.24,-128.8"/>
<polygon fill="black" stroke="black" points="670.24,-132.3 680.24,-128.8 670.24,-125.3 670.24,-132.3"/>
</g>
<!-- NavigationBarComponent -->
<g id="node3" class="node">
<title>NavigationBarComponent</title>
<polygon fill="#ffffb3" stroke="black" points="371.75,-84.8 208.25,-84.8 208.25,-48.8 371.75,-48.8 371.75,-84.8"/>
<text text-anchor="middle" x="290" y="-62.6" font-family="Times,serif" font-size="14.00">NavigationBarComponent</text>
</g>
<!-- NavigationBarComponent&#45;&gt;AppModule -->
<g id="edge3" class="edge">
<title>NavigationBarComponent&#45;&gt;AppModule</title>
<path fill="none" stroke="black" d="M290,-84.93C290,-105.37 290,-135.8 290,-135.8 290,-135.8 670.19,-135.8 670.19,-135.8"/>
<polygon fill="black" stroke="black" points="670.19,-139.3 680.19,-135.8 670.19,-132.3 670.19,-139.3"/>
</g>
<!-- PageNotFoundComponent -->
<g id="node4" class="node">
<title>PageNotFoundComponent</title>
<polygon fill="#ffffb3" stroke="black" points="189.83,-84.8 24.17,-84.8 24.17,-48.8 189.83,-48.8 189.83,-84.8"/>
<text text-anchor="middle" x="107" y="-62.6" font-family="Times,serif" font-size="14.00">PageNotFoundComponent</text>
</g>
<!-- PageNotFoundComponent&#45;&gt;AppModule -->
<g id="edge4" class="edge">
<title>PageNotFoundComponent&#45;&gt;AppModule</title>
<path fill="none" stroke="black" d="M107,-84.81C107,-107.29 107,-142.8 107,-142.8 107,-142.8 670.21,-142.8 670.21,-142.8"/>
<polygon fill="black" stroke="black" points="670.21,-146.3 680.21,-142.8 670.21,-139.3 670.21,-146.3"/>
</g>
<!-- AppComponent  -->
<g id="node10" class="node">
<title>AppComponent </title>
<polygon fill="#80b1d3" stroke="black" points="776.44,-214.8 667.56,-214.8 667.56,-178.8 776.44,-178.8 776.44,-214.8"/>
<text text-anchor="middle" x="722" y="-192.6" font-family="Times,serif" font-size="14.00">AppComponent </text>
</g>
<!-- AppModule&#45;&gt;AppComponent  -->
<g id="edge9" class="edge">
<title>AppModule&#45;&gt;AppComponent </title>
<path fill="none" stroke="black" stroke-dasharray="1,5" d="M722,-149.91C722,-149.91 722,-168.79 722,-168.79"/>
<polygon fill="black" stroke="black" points="718.5,-168.79 722,-178.79 725.5,-168.79 718.5,-168.79"/>
</g>
<!-- AppRoutingModule -->
<g id="node6" class="node">
<title>AppRoutingModule</title>
<polygon fill="#8dd3c7" stroke="black" points="1387.28,-84.8 1384.28,-88.8 1363.28,-88.8 1360.28,-84.8 1258.72,-84.8 1258.72,-48.8 1387.28,-48.8 1387.28,-84.8"/>
<text text-anchor="middle" x="1323" y="-62.6" font-family="Times,serif" font-size="14.00">AppRoutingModule</text>
</g>
<!-- AppRoutingModule&#45;&gt;AppModule -->
<g id="edge5" class="edge">
<title>AppRoutingModule&#45;&gt;AppModule</title>
<path fill="none" stroke="black" d="M1323,-84.81C1323,-107.29 1323,-142.8 1323,-142.8 1323,-142.8 773.78,-142.8 773.78,-142.8"/>
<polygon fill="black" stroke="black" points="773.78,-139.3 763.78,-142.8 773.78,-146.3 773.78,-139.3"/>
</g>
<!-- ConcertManagementModule -->
<g id="node7" class="node">
<title>ConcertManagementModule</title>
<polygon fill="#8dd3c7" stroke="black" points="1240.45,-84.8 1237.45,-88.8 1216.45,-88.8 1213.45,-84.8 1063.55,-84.8 1063.55,-48.8 1240.45,-48.8 1240.45,-84.8"/>
<text text-anchor="middle" x="1152" y="-62.6" font-family="Times,serif" font-size="14.00">ConcertManagementModule</text>
</g>
<!-- ConcertManagementModule&#45;&gt;AppModule -->
<g id="edge6" class="edge">
<title>ConcertManagementModule&#45;&gt;AppModule</title>
<path fill="none" stroke="black" d="M1152,-84.93C1152,-105.37 1152,-135.8 1152,-135.8 1152,-135.8 774.01,-135.8 774.01,-135.8"/>
<polygon fill="black" stroke="black" points="774.01,-132.3 764.01,-135.8 774.01,-139.3 774.01,-132.3"/>
</g>
<!-- MarketplaceModule -->
<g id="node8" class="node">
<title>MarketplaceModule</title>
<polygon fill="#8dd3c7" stroke="black" points="1045.51,-84.8 1042.51,-88.8 1021.51,-88.8 1018.51,-84.8 916.49,-84.8 916.49,-48.8 1045.51,-48.8 1045.51,-84.8"/>
<text text-anchor="middle" x="981" y="-62.6" font-family="Times,serif" font-size="14.00">MarketplaceModule</text>
</g>
<!-- MarketplaceModule&#45;&gt;AppModule -->
<g id="edge7" class="edge">
<title>MarketplaceModule&#45;&gt;AppModule</title>
<path fill="none" stroke="black" d="M981,-85.07C981,-103.36 981,-128.8 981,-128.8 981,-128.8 773.9,-128.8 773.9,-128.8"/>
<polygon fill="black" stroke="black" points="773.9,-125.3 763.9,-128.8 773.9,-132.3 773.9,-125.3"/>
</g>
<!-- UserModule -->
<g id="node9" class="node">
<title>UserModule</title>
<polygon fill="#8dd3c7" stroke="black" points="897.99,-84.8 894.99,-88.8 873.99,-88.8 870.99,-84.8 812.01,-84.8 812.01,-48.8 897.99,-48.8 897.99,-84.8"/>
<text text-anchor="middle" x="855" y="-62.6" font-family="Times,serif" font-size="14.00">UserModule</text>
</g>
<!-- UserModule&#45;&gt;AppModule -->
<g id="edge8" class="edge">
<title>UserModule&#45;&gt;AppModule</title>
<path fill="none" stroke="black" d="M855,-84.81C855,-100.85 855,-121.8 855,-121.8 855,-121.8 773.72,-121.8 773.72,-121.8"/>
<polygon fill="black" stroke="black" points="773.72,-118.3 763.72,-121.8 773.72,-125.3 773.72,-118.3"/>
</g>
<!-- WalletService -->
<g id="node11" class="node">
<title>WalletService</title>
<ellipse fill="#fdb462" stroke="black" cx="722" cy="-66.8" rx="65.96" ry="18"/>
<text text-anchor="middle" x="722" y="-62.6" font-family="Times,serif" font-size="14.00">WalletService</text>
</g>
<!-- WalletService&#45;&gt;AppModule -->
<g id="edge10" class="edge">
<title>WalletService&#45;&gt;AppModule</title>
<path fill="none" stroke="black" d="M722,-84.91C722,-84.91 722,-103.79 722,-103.79"/>
<polygon fill="black" stroke="black" points="718.5,-103.79 722,-113.79 725.5,-103.79 718.5,-103.79"/>
</g>
</g>
</svg>
