<?xml version="1.0" encoding="UTF-8" standalone="no"?>
<!DOCTYPE svg PUBLIC "-//W3C//DTD SVG 1.1//EN"
 "http://www.w3.org/Graphics/SVG/1.1/DTD/svg11.dtd">
<!-- Generated by graphviz version 5.0.0 (20220707.1540)
 -->
<!-- Title: dependencies Pages: 1 -->
<svg width="1269pt" height="174pt"
 viewBox="0.00 0.00 1269.00 173.80" xmlns="http://www.w3.org/2000/svg" xmlns:xlink="http://www.w3.org/1999/xlink">
<g id="graph0" class="graph" transform="scale(1 1) rotate(0) translate(4 169.8)">
<title>dependencies</title>
<polygon fill="white" stroke="transparent" points="-4,4 -4,-169.8 1265,-169.8 1265,4 -4,4"/>
<text text-anchor="middle" x="630.5" y="-8.2" font-family="sans-serif" font-size="14.00">dependencies</text>
<g id="clust1" class="cluster">
<title>cluster_MarketplaceModule</title>
<polygon fill="none" stroke="black" stroke-dasharray="1,5" points="8,-32.8 8,-157.8 1253,-157.8 1253,-32.8 8,-32.8"/>
</g>
<g id="clust9" class="cluster">
<title>cluster_MarketplaceModule_imports</title>
<polygon fill="none" stroke="black" points="1101,-40.8 1101,-92.8 1245,-92.8 1245,-40.8 1101,-40.8"/>
</g>
<g id="clust2" class="cluster">
<title>cluster_MarketplaceModule_declarations</title>
<polygon fill="none" stroke="black" points="16,-40.8 16,-92.8 1093,-92.8 1093,-40.8 16,-40.8"/>
</g>
<!-- AudienceLayoutComponent -->
<g id="node1" class="node">
<title>AudienceLayoutComponent</title>
<polygon fill="#ffffb3" stroke="black" points="1085.13,-84.8 910.87,-84.8 910.87,-48.8 1085.13,-48.8 1085.13,-84.8"/>
<text text-anchor="middle" x="998" y="-62.6" font-family="Times,serif" font-size="14.00">AudienceLayoutComponent</text>
</g>
<!-- MarketplaceModule -->
<g id="node7" class="node">
<title>MarketplaceModule</title>
<polygon fill="#8dd3c7" stroke="black" points="698.51,-149.8 695.51,-153.8 674.51,-153.8 671.51,-149.8 569.49,-149.8 569.49,-113.8 698.51,-113.8 698.51,-149.8"/>
<text text-anchor="middle" x="634" y="-127.6" font-family="Times,serif" font-size="14.00">MarketplaceModule</text>
</g>
<!-- AudienceLayoutComponent&#45;&gt;MarketplaceModule -->
<g id="edge1" class="edge">
<title>AudienceLayoutComponent&#45;&gt;MarketplaceModule</title>
<path fill="none" stroke="black" d="M998,-84.91C998,-104.14 998,-131.8 998,-131.8 998,-131.8 708.66,-131.8 708.66,-131.8"/>
<polygon fill="black" stroke="black" points="708.66,-128.3 698.66,-131.8 708.66,-135.3 708.66,-128.3"/>
</g>
<!-- ConcertSectorsComponent -->
<g id="node2" class="node">
<title>ConcertSectorsComponent</title>
<polygon fill="#ffffb3" stroke="black" points="892.36,-84.8 725.64,-84.8 725.64,-48.8 892.36,-48.8 892.36,-84.8"/>
<text text-anchor="middle" x="809" y="-62.6" font-family="Times,serif" font-size="14.00">ConcertSectorsComponent</text>
</g>
<!-- ConcertSectorsComponent&#45;&gt;MarketplaceModule -->
<g id="edge2" class="edge">
<title>ConcertSectorsComponent&#45;&gt;MarketplaceModule</title>
<path fill="none" stroke="black" d="M809,-84.83C809,-101.2 809,-122.8 809,-122.8 809,-122.8 708.67,-122.8 708.67,-122.8"/>
<polygon fill="black" stroke="black" points="708.67,-119.3 698.67,-122.8 708.67,-126.3 708.67,-119.3"/>
</g>
<!-- ConcertSellComponent -->
<g id="node3" class="node">
<title>ConcertSellComponent</title>
<polygon fill="#ffffb3" stroke="black" points="707.93,-84.8 560.07,-84.8 560.07,-48.8 707.93,-48.8 707.93,-84.8"/>
<text text-anchor="middle" x="634" y="-62.6" font-family="Times,serif" font-size="14.00">ConcertSellComponent</text>
</g>
<!-- ConcertSellComponent&#45;&gt;MarketplaceModule -->
<g id="edge3" class="edge">
<title>ConcertSellComponent&#45;&gt;MarketplaceModule</title>
<path fill="none" stroke="black" d="M634,-84.91C634,-84.91 634,-103.79 634,-103.79"/>
<polygon fill="black" stroke="black" points="630.5,-103.79 634,-113.79 637.5,-103.79 630.5,-103.79"/>
</g>
<!-- MarketplaceComponent -->
<g id="node4" class="node">
<title>MarketplaceComponent</title>
<polygon fill="#ffffb3" stroke="black" points="542.79,-84.8 391.21,-84.8 391.21,-48.8 542.79,-48.8 542.79,-84.8"/>
<text text-anchor="middle" x="467" y="-62.6" font-family="Times,serif" font-size="14.00">MarketplaceComponent</text>
</g>
<!-- MarketplaceComponent&#45;&gt;MarketplaceModule -->
<g id="edge4" class="edge">
<title>MarketplaceComponent&#45;&gt;MarketplaceModule</title>
<path fill="none" stroke="black" d="M467,-84.83C467,-101.2 467,-122.8 467,-122.8 467,-122.8 559.43,-122.8 559.43,-122.8"/>
<polygon fill="black" stroke="black" points="559.43,-126.3 569.43,-122.8 559.43,-119.3 559.43,-126.3"/>
</g>
<!-- ReselledTicketComponent -->
<g id="node5" class="node">
<title>ReselledTicketComponent</title>
<polygon fill="#ffffb3" stroke="black" points="373.8,-84.8 208.2,-84.8 208.2,-48.8 373.8,-48.8 373.8,-84.8"/>
<text text-anchor="middle" x="291" y="-62.6" font-family="Times,serif" font-size="14.00">ReselledTicketComponent</text>
</g>
<!-- ReselledTicketComponent&#45;&gt;MarketplaceModule -->
<g id="edge5" class="edge">
<title>ReselledTicketComponent&#45;&gt;MarketplaceModule</title>
<path fill="none" stroke="black" d="M291,-84.91C291,-104.14 291,-131.8 291,-131.8 291,-131.8 559.48,-131.8 559.48,-131.8"/>
<polygon fill="black" stroke="black" points="559.48,-135.3 569.48,-131.8 559.48,-128.3 559.48,-135.3"/>
</g>
<!-- StandardTicketComponent -->
<g id="node6" class="node">
<title>StandardTicketComponent</title>
<polygon fill="#ffffb3" stroke="black" points="190.36,-84.8 23.64,-84.8 23.64,-48.8 190.36,-48.8 190.36,-84.8"/>
<text text-anchor="middle" x="107" y="-62.6" font-family="Times,serif" font-size="14.00">StandardTicketComponent</text>
</g>
<!-- StandardTicketComponent&#45;&gt;MarketplaceModule -->
<g id="edge6" class="edge">
<title>StandardTicketComponent&#45;&gt;MarketplaceModule</title>
<path fill="none" stroke="black" d="M107,-85.09C107,-107.01 107,-140.8 107,-140.8 107,-140.8 559.38,-140.8 559.38,-140.8"/>
<polygon fill="black" stroke="black" points="559.38,-144.3 569.38,-140.8 559.38,-137.3 559.38,-144.3"/>
</g>
<!-- AppRoutingModule -->
<g id="node8" class="node">
<title>AppRoutingModule</title>
<polygon fill="#8dd3c7" stroke="black" points="1237.28,-84.8 1234.28,-88.8 1213.28,-88.8 1210.28,-84.8 1108.72,-84.8 1108.72,-48.8 1237.28,-48.8 1237.28,-84.8"/>
<text text-anchor="middle" x="1173" y="-62.6" font-family="Times,serif" font-size="14.00">AppRoutingModule</text>
</g>
<!-- AppRoutingModule&#45;&gt;MarketplaceModule -->
<g id="edge7" class="edge">
<title>AppRoutingModule&#45;&gt;MarketplaceModule</title>
<path fill="none" stroke="black" d="M1173,-85.09C1173,-107.01 1173,-140.8 1173,-140.8 1173,-140.8 708.75,-140.8 708.75,-140.8"/>
<polygon fill="black" stroke="black" points="708.75,-137.3 698.75,-140.8 708.75,-144.3 708.75,-137.3"/>
</g>
</g>
</svg>
