<?xml version="1.0" encoding="UTF-8" standalone="no"?>
<!DOCTYPE svg PUBLIC "-//W3C//DTD SVG 1.1//EN"
 "http://www.w3.org/Graphics/SVG/1.1/DTD/svg11.dtd">
<!-- Generated by graphviz version 5.0.0 (20220707.1540)
 -->
<!-- Title: dependencies Pages: 1 -->
<svg width="3082pt" height="391pt"
 viewBox="0.00 0.00 3082.00 390.80" xmlns="http://www.w3.org/2000/svg" xmlns:xlink="http://www.w3.org/1999/xlink">
<g id="graph0" class="graph" transform="scale(1 1) rotate(0) translate(4 386.8)">
<title>dependencies</title>
<polygon fill="white" stroke="transparent" points="-4,4 -4,-386.8 3078,-386.8 3078,4 -4,4"/>
<text text-anchor="middle" x="1537" y="-8.2" font-family="sans-serif" font-size="14.00">dependencies</text>
<g id="clust1" class="cluster">
<title>cluster_AppModule</title>
<polygon fill="none" stroke="black" stroke-dasharray="1,5" points="20,-108.8 20,-374.8 1162,-374.8 1162,-108.8 20,-108.8"/>
</g>
<g id="clust2" class="cluster">
<title>cluster_AppModule_declarations</title>
<polygon fill="none" stroke="black" points="531,-184.8 531,-236.8 1154,-236.8 1154,-184.8 531,-184.8"/>
</g>
<g id="clust7" class="cluster">
<title>cluster_AppModule_imports</title>
<polygon fill="none" stroke="black" points="184,-116.8 184,-236.8 523,-236.8 523,-116.8 184,-116.8"/>
</g>
<g id="clust9" class="cluster">
<title>cluster_AppModule_bootstrap</title>
<polygon fill="none" stroke="black" points="410,-314.8 410,-366.8 534,-366.8 534,-314.8 410,-314.8"/>
</g>
<g id="clust10" class="cluster">
<title>cluster_AppModule_providers</title>
<polygon fill="none" stroke="black" points="28,-184.8 28,-236.8 176,-236.8 176,-184.8 28,-184.8"/>
</g>
<g id="clust17" class="cluster">
<title>cluster_ConcertManagementModule</title>
<polygon fill="none" stroke="black" stroke-dasharray="1,5" points="8,-32.8 8,-100.8 656,-100.8 656,-32.8 8,-32.8"/>
</g>
<g id="clust18" class="cluster">
<title>cluster_ConcertManagementModule_declarations</title>
<polygon fill="none" stroke="black" points="16,-40.8 16,-92.8 648,-92.8 648,-40.8 16,-40.8"/>
</g>
<g id="clust27" class="cluster">
<title>cluster_MarketplaceModule</title>
<polygon fill="none" stroke="black" stroke-dasharray="1,5" points="1170,-108.8 1170,-176.8 2263,-176.8 2263,-108.8 1170,-108.8"/>
</g>
<g id="clust28" class="cluster">
<title>cluster_MarketplaceModule_declarations</title>
<polygon fill="none" stroke="black" points="1178,-116.8 1178,-168.8 2255,-168.8 2255,-116.8 1178,-116.8"/>
</g>
<g id="clust39" class="cluster">
<title>cluster_PipesModule</title>
<polygon fill="none" stroke="black" stroke-dasharray="1,5" points="2789,-32.8 2789,-244.8 3066,-244.8 3066,-32.8 2789,-32.8"/>
</g>
<g id="clust40" class="cluster">
<title>cluster_PipesModule_declarations</title>
<polygon fill="none" stroke="black" points="2801,-40.8 2801,-92.8 3055,-92.8 3055,-40.8 2801,-40.8"/>
</g>
<g id="clust44" class="cluster">
<title>cluster_PipesModule_exports</title>
<polygon fill="none" stroke="black" points="2797,-184.8 2797,-236.8 3058,-236.8 3058,-184.8 2797,-184.8"/>
</g>
<g id="clust47" class="cluster">
<title>cluster_UserModule</title>
<polygon fill="none" stroke="black" stroke-dasharray="1,5" points="2271,-108.8 2271,-176.8 2781,-176.8 2781,-108.8 2271,-108.8"/>
</g>
<g id="clust48" class="cluster">
<title>cluster_UserModule_declarations</title>
<polygon fill="none" stroke="black" points="2279,-116.8 2279,-168.8 2773,-168.8 2773,-116.8 2279,-116.8"/>
</g>
<!-- AppComponent -->
<g id="node1" class="node">
<title>AppComponent</title>
<polygon fill="#ffffb3" stroke="black" points="780.94,-228.8 675.06,-228.8 675.06,-192.8 780.94,-192.8 780.94,-228.8"/>
<text text-anchor="middle" x="728" y="-206.6" font-family="Times,serif" font-size="14.00">AppComponent</text>
</g>
<!-- AppModule -->
<g id="node5" class="node">
<title>AppModule</title>
<polygon fill="#8dd3c7" stroke="black" points="513.66,-293.8 510.66,-297.8 489.66,-297.8 486.66,-293.8 430.34,-293.8 430.34,-257.8 513.66,-257.8 513.66,-293.8"/>
<text text-anchor="middle" x="472" y="-271.6" font-family="Times,serif" font-size="14.00">AppModule</text>
</g>
<!-- AppComponent&#45;&gt;AppModule -->
<g id="edge1" class="edge">
<title>AppComponent&#45;&gt;AppModule</title>
<path fill="none" stroke="black" d="M728,-229.07C728,-247.36 728,-272.8 728,-272.8 728,-272.8 523.7,-272.8 523.7,-272.8"/>
<polygon fill="black" stroke="black" points="523.7,-269.3 513.7,-272.8 523.7,-276.3 523.7,-269.3"/>
</g>
<!-- FooterComponent -->
<g id="node2" class="node">
<title>FooterComponent</title>
<polygon fill="#ffffb3" stroke="black" points="656.88,-228.8 539.12,-228.8 539.12,-192.8 656.88,-192.8 656.88,-228.8"/>
<text text-anchor="middle" x="598" y="-206.6" font-family="Times,serif" font-size="14.00">FooterComponent</text>
</g>
<!-- FooterComponent&#45;&gt;AppModule -->
<g id="edge2" class="edge">
<title>FooterComponent&#45;&gt;AppModule</title>
<path fill="none" stroke="black" d="M598,-228.81C598,-244.85 598,-265.8 598,-265.8 598,-265.8 523.96,-265.8 523.96,-265.8"/>
<polygon fill="black" stroke="black" points="523.96,-262.3 513.96,-265.8 523.96,-269.3 523.96,-262.3"/>
</g>
<!-- NavigationBarComponent -->
<g id="node3" class="node">
<title>NavigationBarComponent</title>
<polygon fill="#ffffb3" stroke="black" points="1145.75,-228.8 982.25,-228.8 982.25,-192.8 1145.75,-192.8 1145.75,-228.8"/>
<text text-anchor="middle" x="1064" y="-206.6" font-family="Times,serif" font-size="14.00">NavigationBarComponent</text>
</g>
<!-- NavigationBarComponent&#45;&gt;AppModule -->
<g id="edge3" class="edge">
<title>NavigationBarComponent&#45;&gt;AppModule</title>
<path fill="none" stroke="black" d="M1064,-228.81C1064,-251.29 1064,-286.8 1064,-286.8 1064,-286.8 524.1,-286.8 524.1,-286.8"/>
<polygon fill="black" stroke="black" points="524.1,-283.3 514.1,-286.8 524.1,-290.3 524.1,-283.3"/>
</g>
<!-- PageNotFoundComponent -->
<g id="node4" class="node">
<title>PageNotFoundComponent</title>
<polygon fill="#ffffb3" stroke="black" points="963.83,-228.8 798.17,-228.8 798.17,-192.8 963.83,-192.8 963.83,-228.8"/>
<text text-anchor="middle" x="881" y="-206.6" font-family="Times,serif" font-size="14.00">PageNotFoundComponent</text>
</g>
<!-- PageNotFoundComponent&#45;&gt;AppModule -->
<g id="edge4" class="edge">
<title>PageNotFoundComponent&#45;&gt;AppModule</title>
<path fill="none" stroke="black" d="M881,-228.93C881,-249.37 881,-279.8 881,-279.8 881,-279.8 523.85,-279.8 523.85,-279.8"/>
<polygon fill="black" stroke="black" points="523.85,-276.3 513.85,-279.8 523.85,-283.3 523.85,-276.3"/>
</g>
<!-- AppComponent  -->
<g id="node10" class="node">
<title>AppComponent </title>
<polygon fill="#80b1d3" stroke="black" points="526.44,-358.8 417.56,-358.8 417.56,-322.8 526.44,-322.8 526.44,-358.8"/>
<text text-anchor="middle" x="472" y="-336.6" font-family="Times,serif" font-size="14.00">AppComponent </text>
</g>
<!-- AppModule&#45;&gt;AppComponent  -->
<g id="edge9" class="edge">
<title>AppModule&#45;&gt;AppComponent </title>
<path fill="none" stroke="black" stroke-dasharray="1,5" d="M472,-293.91C472,-293.91 472,-312.79 472,-312.79"/>
<polygon fill="black" stroke="black" points="468.5,-312.79 472,-322.79 475.5,-312.79 468.5,-312.79"/>
</g>
<!-- AppRoutingModule -->
<g id="node6" class="node">
<title>AppRoutingModule</title>
<polygon fill="#8dd3c7" stroke="black" points="515.28,-160.8 512.28,-164.8 491.28,-164.8 488.28,-160.8 386.72,-160.8 386.72,-124.8 515.28,-124.8 515.28,-160.8"/>
<text text-anchor="middle" x="451" y="-138.6" font-family="Times,serif" font-size="14.00">AppRoutingModule</text>
</g>
<!-- AppRoutingModule&#45;&gt;AppModule -->
<g id="edge5" class="edge">
<title>AppRoutingModule&#45;&gt;AppModule</title>
<path fill="none" stroke="black" d="M423.27,-160.95C423.27,-195.16 423.27,-265.8 423.27,-265.8 423.27,-265.8 423.95,-265.8 423.95,-265.8"/>
<polygon fill="black" stroke="black" points="420.04,-269.3 430.04,-265.8 420.04,-262.3 420.04,-269.3"/>
</g>
<!-- MarketplaceModule -->
<g id="node8" class="node">
<title>MarketplaceModule</title>
<polygon fill="#8dd3c7" stroke="black" points="410.51,-228.8 407.51,-232.8 386.51,-232.8 383.51,-228.8 281.49,-228.8 281.49,-192.8 410.51,-192.8 410.51,-228.8"/>
<text text-anchor="middle" x="346" y="-206.6" font-family="Times,serif" font-size="14.00">MarketplaceModule</text>
</g>
<!-- AppRoutingModule&#45;&gt;MarketplaceModule -->
<g id="edge21" class="edge">
<title>AppRoutingModule&#45;&gt;MarketplaceModule</title>
<path fill="none" stroke="black" d="M389.63,-161.02C389.63,-161.02 389.63,-182.53 389.63,-182.53"/>
<polygon fill="black" stroke="black" points="386.13,-182.53 389.63,-192.53 393.13,-182.53 386.13,-182.53"/>
</g>
<!-- UserModule -->
<g id="node9" class="node">
<title>UserModule</title>
<polygon fill="#8dd3c7" stroke="black" points="514.99,-228.8 511.99,-232.8 490.99,-232.8 487.99,-228.8 429.01,-228.8 429.01,-192.8 514.99,-192.8 514.99,-228.8"/>
<text text-anchor="middle" x="472" y="-206.6" font-family="Times,serif" font-size="14.00">UserModule</text>
</g>
<!-- AppRoutingModule&#45;&gt;UserModule -->
<g id="edge29" class="edge">
<title>AppRoutingModule&#45;&gt;UserModule</title>
<path fill="none" stroke="black" d="M446.2,-161.02C446.2,-161.02 446.2,-182.53 446.2,-182.53"/>
<polygon fill="black" stroke="black" points="442.7,-182.53 446.2,-192.53 449.7,-182.53 442.7,-182.53"/>
</g>
<!-- ConcertManagementModule -->
<g id="node7" class="node">
<title>ConcertManagementModule</title>
<polygon fill="#8dd3c7" stroke="black" points="368.45,-160.8 365.45,-164.8 344.45,-164.8 341.45,-160.8 191.55,-160.8 191.55,-124.8 368.45,-124.8 368.45,-160.8"/>
<text text-anchor="middle" x="280" y="-138.6" font-family="Times,serif" font-size="14.00">ConcertManagementModule</text>
</g>
<!-- ConcertManagementModule&#45;&gt;AppModule -->
<g id="edge6" class="edge">
<title>ConcertManagementModule&#45;&gt;AppModule</title>
<path fill="none" stroke="black" d="M236.38,-160.99C236.38,-198.26 236.38,-279.8 236.38,-279.8 236.38,-279.8 420.15,-279.8 420.15,-279.8"/>
<polygon fill="black" stroke="black" points="420.15,-283.3 430.15,-279.8 420.15,-276.3 420.15,-283.3"/>
</g>
<!-- MarketplaceModule&#45;&gt;AppModule -->
<g id="edge7" class="edge">
<title>MarketplaceModule&#45;&gt;AppModule</title>
<path fill="none" stroke="black" d="M346,-229.07C346,-247.36 346,-272.8 346,-272.8 346,-272.8 420.04,-272.8 420.04,-272.8"/>
<polygon fill="black" stroke="black" points="420.04,-276.3 430.04,-272.8 420.04,-269.3 420.04,-276.3"/>
</g>
<!-- UserModule&#45;&gt;AppModule -->
<g id="edge8" class="edge">
<title>UserModule&#45;&gt;AppModule</title>
<path fill="none" stroke="black" d="M472,-228.91C472,-228.91 472,-247.79 472,-247.79"/>
<polygon fill="black" stroke="black" points="468.5,-247.79 472,-257.79 475.5,-247.79 468.5,-247.79"/>
</g>
<!-- WalletService -->
<g id="node11" class="node">
<title>WalletService</title>
<ellipse fill="#fdb462" stroke="black" cx="102" cy="-210.8" rx="65.96" ry="18"/>
<text text-anchor="middle" x="102" y="-206.6" font-family="Times,serif" font-size="14.00">WalletService</text>
</g>
<!-- WalletService&#45;&gt;AppModule -->
<g id="edge10" class="edge">
<title>WalletService&#45;&gt;AppModule</title>
<path fill="none" stroke="black" d="M102,-228.81C102,-251.29 102,-286.8 102,-286.8 102,-286.8 420.28,-286.8 420.28,-286.8"/>
<polygon fill="black" stroke="black" points="420.28,-290.3 430.28,-286.8 420.28,-283.3 420.28,-290.3"/>
</g>
<!-- CreateConcertComponent -->
<g id="node12" class="node">
<title>CreateConcertComponent</title>
<polygon fill="#ffffb3" stroke="black" points="640.18,-84.8 477.82,-84.8 477.82,-48.8 640.18,-48.8 640.18,-84.8"/>
<text text-anchor="middle" x="559" y="-62.6" font-family="Times,serif" font-size="14.00">CreateConcertComponent</text>
</g>
<!-- CreateConcertComponent&#45;&gt;ConcertManagementModule -->
<g id="edge11" class="edge">
<title>CreateConcertComponent&#45;&gt;ConcertManagementModule</title>
<path fill="none" stroke="black" d="M496.65,-84.91C496.65,-94.7 496.65,-104.8 496.65,-104.8 496.65,-104.8 348.89,-104.8 348.89,-104.8 348.89,-104.8 348.89,-114.69 348.89,-114.69"/>
<polygon fill="black" stroke="black" points="345.39,-114.69 348.89,-124.69 352.39,-114.69 345.39,-114.69"/>
</g>
<!-- MyConcertsComponent -->
<g id="node13" class="node">
<title>MyConcertsComponent</title>
<polygon fill="#ffffb3" stroke="black" points="460.05,-84.8 309.95,-84.8 309.95,-48.8 460.05,-48.8 460.05,-84.8"/>
<text text-anchor="middle" x="385" y="-62.6" font-family="Times,serif" font-size="14.00">MyConcertsComponent</text>
</g>
<!-- MyConcertsComponent&#45;&gt;ConcertManagementModule -->
<g id="edge12" class="edge">
<title>MyConcertsComponent&#45;&gt;ConcertManagementModule</title>
<path fill="none" stroke="black" d="M329.31,-84.81C329.31,-84.81 329.31,-114.65 329.31,-114.65"/>
<polygon fill="black" stroke="black" points="325.81,-114.65 329.31,-124.65 332.81,-114.65 325.81,-114.65"/>
</g>
<!-- SectorComponent -->
<g id="node14" class="node">
<title>SectorComponent</title>
<polygon fill="#ffffb3" stroke="black" points="291.6,-84.8 174.4,-84.8 174.4,-48.8 291.6,-48.8 291.6,-84.8"/>
<text text-anchor="middle" x="233" y="-62.6" font-family="Times,serif" font-size="14.00">SectorComponent</text>
</g>
<!-- SectorComponent&#45;&gt;ConcertManagementModule -->
<g id="edge13" class="edge">
<title>SectorComponent&#45;&gt;ConcertManagementModule</title>
<path fill="none" stroke="black" d="M241.54,-84.81C241.54,-84.81 241.54,-114.65 241.54,-114.65"/>
<polygon fill="black" stroke="black" points="238.04,-114.65 241.54,-124.65 245.04,-114.65 238.04,-114.65"/>
</g>
<!-- WhitelistComponent -->
<g id="node15" class="node">
<title>WhitelistComponent</title>
<polygon fill="#ffffb3" stroke="black" points="156.16,-84.8 23.84,-84.8 23.84,-48.8 156.16,-48.8 156.16,-84.8"/>
<text text-anchor="middle" x="90" y="-62.6" font-family="Times,serif" font-size="14.00">WhitelistComponent</text>
</g>
<!-- WhitelistComponent&#45;&gt;ConcertManagementModule -->
<g id="edge14" class="edge">
<title>WhitelistComponent&#45;&gt;ConcertManagementModule</title>
<path fill="none" stroke="black" d="M96.3,-84.81C96.3,-107.29 96.3,-142.8 96.3,-142.8 96.3,-142.8 181.38,-142.8 181.38,-142.8"/>
<polygon fill="black" stroke="black" points="181.38,-146.3 191.38,-142.8 181.38,-139.3 181.38,-146.3"/>
</g>
<!-- AudienceLayoutComponent -->
<g id="node16" class="node">
<title>AudienceLayoutComponent</title>
<polygon fill="#ffffb3" stroke="black" points="2247.13,-160.8 2072.87,-160.8 2072.87,-124.8 2247.13,-124.8 2247.13,-160.8"/>
<text text-anchor="middle" x="2160" y="-138.6" font-family="Times,serif" font-size="14.00">AudienceLayoutComponent</text>
</g>
<!-- AudienceLayoutComponent&#45;&gt;MarketplaceModule -->
<g id="edge15" class="edge">
<title>AudienceLayoutComponent&#45;&gt;MarketplaceModule</title>
<path fill="none" stroke="black" d="M2160,-160.91C2160,-170.7 2160,-180.8 2160,-180.8 2160,-180.8 407.74,-180.8 407.74,-180.8 407.74,-180.8 407.74,-182.66 407.74,-182.66"/>
<polygon fill="black" stroke="black" points="404.24,-182.66 407.74,-192.66 411.24,-182.66 404.24,-182.66"/>
</g>
<!-- ConcertSectorsComponent -->
<g id="node17" class="node">
<title>ConcertSectorsComponent</title>
<polygon fill="#ffffb3" stroke="black" points="2054.36,-160.8 1887.64,-160.8 1887.64,-124.8 2054.36,-124.8 2054.36,-160.8"/>
<text text-anchor="middle" x="1971" y="-138.6" font-family="Times,serif" font-size="14.00">ConcertSectorsComponent</text>
</g>
<!-- ConcertSectorsComponent&#45;&gt;MarketplaceModule -->
<g id="edge16" class="edge">
<title>ConcertSectorsComponent&#45;&gt;MarketplaceModule</title>
<path fill="none" stroke="black" d="M1971,-160.99C1971,-169.08 1971,-176.8 1971,-176.8 1971,-176.8 404.72,-176.8 404.72,-176.8 404.72,-176.8 404.72,-182.61 404.72,-182.61"/>
<polygon fill="black" stroke="black" points="401.22,-182.61 404.72,-192.61 408.22,-182.61 401.22,-182.61"/>
</g>
<!-- ConcertSellComponent -->
<g id="node18" class="node">
<title>ConcertSellComponent</title>
<polygon fill="#ffffb3" stroke="black" points="1869.93,-160.8 1722.07,-160.8 1722.07,-124.8 1869.93,-124.8 1869.93,-160.8"/>
<text text-anchor="middle" x="1796" y="-138.6" font-family="Times,serif" font-size="14.00">ConcertSellComponent</text>
</g>
<!-- ConcertSellComponent&#45;&gt;MarketplaceModule -->
<g id="edge17" class="edge">
<title>ConcertSellComponent&#45;&gt;MarketplaceModule</title>
<path fill="none" stroke="black" d="M1796,-160.83C1796,-167.65 1796,-173.8 1796,-173.8 1796,-173.8 401.7,-173.8 401.7,-173.8 401.7,-173.8 401.7,-182.73 401.7,-182.73"/>
<polygon fill="black" stroke="black" points="398.2,-182.73 401.7,-192.73 405.2,-182.73 398.2,-182.73"/>
</g>
<!-- MarketplaceComponent -->
<g id="node19" class="node">
<title>MarketplaceComponent</title>
<polygon fill="#ffffb3" stroke="black" points="1704.79,-160.8 1553.21,-160.8 1553.21,-124.8 1704.79,-124.8 1704.79,-160.8"/>
<text text-anchor="middle" x="1629" y="-138.6" font-family="Times,serif" font-size="14.00">MarketplaceComponent</text>
</g>
<!-- MarketplaceComponent&#45;&gt;MarketplaceModule -->
<g id="edge18" class="edge">
<title>MarketplaceComponent&#45;&gt;MarketplaceModule</title>
<path fill="none" stroke="black" d="M1629,-161.01C1629,-166.35 1629,-170.8 1629,-170.8 1629,-170.8 398.68,-170.8 398.68,-170.8 398.68,-170.8 398.68,-182.67 398.68,-182.67"/>
<polygon fill="black" stroke="black" points="395.18,-182.67 398.68,-192.67 402.18,-182.67 395.18,-182.67"/>
</g>
<!-- ReselledTicketComponent -->
<g id="node20" class="node">
<title>ReselledTicketComponent</title>
<polygon fill="#ffffb3" stroke="black" points="1535.8,-160.8 1370.2,-160.8 1370.2,-124.8 1535.8,-124.8 1535.8,-160.8"/>
<text text-anchor="middle" x="1453" y="-138.6" font-family="Times,serif" font-size="14.00">ReselledTicketComponent</text>
</g>
<!-- ReselledTicketComponent&#45;&gt;MarketplaceModule -->
<g id="edge19" class="edge">
<title>ReselledTicketComponent&#45;&gt;MarketplaceModule</title>
<path fill="none" stroke="black" d="M1453,-160.97C1453,-164.85 1453,-167.8 1453,-167.8 1453,-167.8 395.66,-167.8 395.66,-167.8 395.66,-167.8 395.66,-182.31 395.66,-182.31"/>
<polygon fill="black" stroke="black" points="392.16,-182.31 395.66,-192.31 399.16,-182.31 392.16,-182.31"/>
</g>
<!-- StandardTicketComponent -->
<g id="node21" class="node">
<title>StandardTicketComponent</title>
<polygon fill="#ffffb3" stroke="black" points="1352.36,-160.8 1185.64,-160.8 1185.64,-124.8 1352.36,-124.8 1352.36,-160.8"/>
<text text-anchor="middle" x="1269" y="-138.6" font-family="Times,serif" font-size="14.00">StandardTicketComponent</text>
</g>
<!-- StandardTicketComponent&#45;&gt;MarketplaceModule -->
<g id="edge20" class="edge">
<title>StandardTicketComponent&#45;&gt;MarketplaceModule</title>
<path fill="none" stroke="black" d="M1269,-160.97C1269,-163.25 1269,-164.8 1269,-164.8 1269,-164.8 392.65,-164.8 392.65,-164.8 392.65,-164.8 392.65,-182.62 392.65,-182.62"/>
<polygon fill="black" stroke="black" points="389.15,-182.62 392.65,-192.62 396.15,-182.62 389.15,-182.62"/>
</g>
<!-- FilterConcertsPipe -->
<g id="node22" class="node">
<title>FilterConcertsPipe</title>
<polygon fill="#ffffb3" stroke="black" points="3047.49,-84.8 2926.51,-84.8 2926.51,-48.8 3047.49,-48.8 3047.49,-84.8"/>
<text text-anchor="middle" x="2987" y="-62.6" font-family="Times,serif" font-size="14.00">FilterConcertsPipe</text>
</g>
<!-- PipesModule -->
<g id="node24" class="node">
<title>PipesModule</title>
<polygon fill="#8dd3c7" stroke="black" points="2971.89,-160.8 2968.89,-164.8 2947.89,-164.8 2944.89,-160.8 2882.11,-160.8 2882.11,-124.8 2971.89,-124.8 2971.89,-160.8"/>
<text text-anchor="middle" x="2927" y="-138.6" font-family="Times,serif" font-size="14.00">PipesModule</text>
</g>
<!-- FilterConcertsPipe&#45;&gt;PipesModule -->
<g id="edge22" class="edge">
<title>FilterConcertsPipe&#45;&gt;PipesModule</title>
<path fill="none" stroke="black" d="M2949.23,-84.81C2949.23,-84.81 2949.23,-114.65 2949.23,-114.65"/>
<polygon fill="black" stroke="black" points="2945.73,-114.65 2949.23,-124.65 2952.73,-114.65 2945.73,-114.65"/>
</g>
<!-- WeiToEthPipe -->
<g id="node23" class="node">
<title>WeiToEthPipe</title>
<polygon fill="#ffffb3" stroke="black" points="2908.7,-84.8 2809.3,-84.8 2809.3,-48.8 2908.7,-48.8 2908.7,-84.8"/>
<text text-anchor="middle" x="2859" y="-62.6" font-family="Times,serif" font-size="14.00">WeiToEthPipe</text>
</g>
<!-- WeiToEthPipe&#45;&gt;PipesModule -->
<g id="edge23" class="edge">
<title>WeiToEthPipe&#45;&gt;PipesModule</title>
<path fill="none" stroke="black" d="M2895.33,-84.81C2895.33,-84.81 2895.33,-114.65 2895.33,-114.65"/>
<polygon fill="black" stroke="black" points="2891.83,-114.65 2895.33,-124.65 2898.83,-114.65 2891.83,-114.65"/>
</g>
<!-- FilterConcertsPipe  -->
<g id="node25" class="node">
<title>FilterConcertsPipe </title>
<polygon fill="#fb8072" stroke="black" points="2929.49,-228.8 2804.51,-228.8 2804.51,-192.8 2929.49,-192.8 2929.49,-228.8"/>
<text text-anchor="middle" x="2867" y="-206.6" font-family="Times,serif" font-size="14.00">FilterConcertsPipe </text>
</g>
<!-- PipesModule&#45;&gt;FilterConcertsPipe  -->
<g id="edge24" class="edge">
<title>PipesModule&#45;&gt;FilterConcertsPipe </title>
<path fill="none" stroke="black" stroke-dasharray="5,2" d="M2905.65,-161.02C2905.65,-161.02 2905.65,-182.53 2905.65,-182.53"/>
<polygon fill="black" stroke="black" points="2902.15,-182.53 2905.65,-192.53 2909.15,-182.53 2902.15,-182.53"/>
</g>
<!-- WeiToEthPipe  -->
<g id="node26" class="node">
<title>WeiToEthPipe </title>
<polygon fill="#fb8072" stroke="black" points="3050.2,-228.8 2947.8,-228.8 2947.8,-192.8 3050.2,-192.8 3050.2,-228.8"/>
<text text-anchor="middle" x="2999" y="-206.6" font-family="Times,serif" font-size="14.00">WeiToEthPipe </text>
</g>
<!-- PipesModule&#45;&gt;WeiToEthPipe  -->
<g id="edge25" class="edge">
<title>PipesModule&#45;&gt;WeiToEthPipe </title>
<path fill="none" stroke="black" stroke-dasharray="5,2" d="M2959.8,-161.02C2959.8,-161.02 2959.8,-182.53 2959.8,-182.53"/>
<polygon fill="black" stroke="black" points="2956.3,-182.53 2959.8,-192.53 2963.3,-182.53 2956.3,-182.53"/>
</g>
<!-- CreateOfferDialogComponent -->
<g id="node27" class="node">
<title>CreateOfferDialogComponent</title>
<polygon fill="#ffffb3" stroke="black" points="2765.28,-160.8 2578.72,-160.8 2578.72,-124.8 2765.28,-124.8 2765.28,-160.8"/>
<text text-anchor="middle" x="2672" y="-138.6" font-family="Times,serif" font-size="14.00">CreateOfferDialogComponent</text>
</g>
<!-- CreateOfferDialogComponent&#45;&gt;UserModule -->
<g id="edge26" class="edge">
<title>CreateOfferDialogComponent&#45;&gt;UserModule</title>
<path fill="none" stroke="black" d="M2672,-160.84C2672,-174.09 2672,-189.8 2672,-189.8 2672,-189.8 497.8,-189.8 497.8,-189.8 497.8,-189.8 497.8,-190.09 497.8,-190.09"/>
<polygon fill="black" stroke="black" points="494.3,-182.72 497.8,-192.72 501.3,-182.72 494.3,-182.72"/>
</g>
<!-- MyNftComponent -->
<g id="node28" class="node">
<title>MyNftComponent</title>
<polygon fill="#ffffb3" stroke="black" points="2560.94,-160.8 2441.06,-160.8 2441.06,-124.8 2560.94,-124.8 2560.94,-160.8"/>
<text text-anchor="middle" x="2501" y="-138.6" font-family="Times,serif" font-size="14.00">MyNftComponent</text>
</g>
<!-- MyNftComponent&#45;&gt;UserModule -->
<g id="edge27" class="edge">
<title>MyNftComponent&#45;&gt;UserModule</title>
<path fill="none" stroke="black" d="M2501,-160.95C2501,-173.07 2501,-186.8 2501,-186.8 2501,-186.8 480.6,-186.8 480.6,-186.8 480.6,-186.8 480.6,-187.38 480.6,-187.38"/>
<polygon fill="black" stroke="black" points="477.1,-182.61 480.6,-192.61 484.1,-182.61 477.1,-182.61"/>
</g>
<!-- MyOffersComponent -->
<g id="node29" class="node">
<title>MyOffersComponent</title>
<polygon fill="#ffffb3" stroke="black" points="2423.04,-160.8 2286.96,-160.8 2286.96,-124.8 2423.04,-124.8 2423.04,-160.8"/>
<text text-anchor="middle" x="2355" y="-138.6" font-family="Times,serif" font-size="14.00">MyOffersComponent</text>
</g>
<!-- MyOffersComponent&#45;&gt;UserModule -->
<g id="edge28" class="edge">
<title>MyOffersComponent&#45;&gt;UserModule</title>
<path fill="none" stroke="black" d="M2355,-160.9C2355,-171.89 2355,-183.8 2355,-183.8 2355,-183.8 463.4,-183.8 463.4,-183.8 463.4,-183.8 463.4,-184.68 463.4,-184.68"/>
<polygon fill="black" stroke="black" points="459.9,-182.64 463.4,-192.64 466.9,-182.64 459.9,-182.64"/>
</g>
</g>
</svg>
